<?xml version="1.0" encoding="utf-8" standalone="no"?>
<!DOCTYPE svg PUBLIC "-//W3C//DTD SVG 1.1//EN"
  "http://www.w3.org/Graphics/SVG/1.1/DTD/svg11.dtd">
<!-- Created with matplotlib (https://matplotlib.org/) -->
<svg height="720pt" version="1.1" viewBox="0 0 720 720" width="720pt" xmlns="http://www.w3.org/2000/svg" xmlns:xlink="http://www.w3.org/1999/xlink">
 <metadata>
  <rdf:RDF xmlns:cc="http://creativecommons.org/ns#" xmlns:dc="http://purl.org/dc/elements/1.1/" xmlns:rdf="http://www.w3.org/1999/02/22-rdf-syntax-ns#">
   <cc:Work>
    <dc:type rdf:resource="http://purl.org/dc/dcmitype/StillImage"/>
    <dc:date>2021-08-06T15:17:54.398846</dc:date>
    <dc:format>image/svg+xml</dc:format>
    <dc:creator>
     <cc:Agent>
      <dc:title>Matplotlib v3.3.4, https://matplotlib.org/</dc:title>
     </cc:Agent>
    </dc:creator>
   </cc:Work>
  </rdf:RDF>
 </metadata>
 <defs>
  <style type="text/css">*{stroke-linecap:butt;stroke-linejoin:round;}</style>
 </defs>
 <g id="figure_1">
  <g id="patch_1">
   <path d="M 0 720 
L 720 720 
L 720 0 
L 0 0 
z
" style="fill:none;"/>
  </g>
  <g id="axes_1">
   <g id="patch_2">
    <path d="M 90 630 
L 536.4 630 
L 536.4 86.4 
L 90 86.4 
z
" style="fill:#ffffff;"/>
   </g>
   <g id="PathCollection_1">
    <path clip-path="url(#p0dd2865c1c)" d="M 90 630 
z
" style="fill:#481b6d;"/>
    <path clip-path="url(#p0dd2865c1c)" d="M 90 513.514286 
z
" style="fill:#481b6d;"/>
    <path clip-path="url(#p0dd2865c1c)" d="M 93.188571 397.028571 
L 90 393.498701 
L 90 397.028571 
L 90 406.735714 
z
" style="fill:#481b6d;"/>
    <path clip-path="url(#p0dd2865c1c)" d="M 105.942857 280.542857 
L 90 261.128571 
L 90 280.542857 
L 90 293.485714 
z
" style="fill:#481b6d;"/>
   </g>
   <g id="PathCollection_2">
    <path clip-path="url(#p0dd2865c1c)" d="M 121.885714 630 
L 137.828571 630 
L 121.885714 628.382143 
L 90 619.214286 
L 90 630 
z
" style="fill:#3f4788;"/>
    <path clip-path="url(#p0dd2865c1c)" d="M 95.978571 552.342857 
L 103.285714 513.514286 
L 90 499.646939 
L 90 513.514286 
L 90 552.342857 
L 90 559.623214 
z
" style="fill:#3f4788;"/>
    <path clip-path="url(#p0dd2865c1c)" d="M 101.16 397.028571 
L 90 384.674026 
L 90 393.498701 
L 93.188571 397.028571 
L 90 406.735714 
L 90 431.003571 
z
" style="fill:#3f4788;"/>
    <path clip-path="url(#p0dd2865c1c)" d="M 217.542857 363.053571 
L 220.731429 358.2 
L 217.542857 351.728571 
L 212.228571 358.2 
z
" style="fill:#3f4788;"/>
    <path clip-path="url(#p0dd2865c1c)" d="M 153.771429 324.225 
L 160.604082 319.371429 
L 153.771429 290.25 
L 147.792857 319.371429 
z
" style="fill:#3f4788;"/>
    <path clip-path="url(#p0dd2865c1c)" d="M 121.885714 283.316327 
L 137.828571 280.542857 
L 121.885714 270.835714 
L 97.971429 241.714286 
L 105.942857 202.885714 
L 90 183.471429 
L 90 202.885714 
L 90 241.714286 
L 90 261.128571 
L 105.942857 280.542857 
L 90 293.485714 
L 90 309.664286 
z
" style="fill:#3f4788;"/>
   </g>
   <g id="PathCollection_3">
    <path clip-path="url(#p0dd2865c1c)" d="M 121.885714 628.382143 
L 137.828571 630 
L 153.771429 630 
L 185.657143 630 
L 217.542857 630 
L 249.428571 630 
L 281.314286 630 
L 313.2 630 
L 345.085714 630 
L 376.971429 630 
L 408.857143 630 
L 440.742857 630 
L 472.628571 630 
L 504.514286 630 
L 536.4 630 
L 536.4 622.234286 
L 504.514286 622.234286 
L 472.628571 622.234286 
L 440.742857 622.234286 
L 408.857143 622.234286 
L 376.971429 622.234286 
L 345.085714 622.94026 
L 313.2 622.94026 
L 281.314286 622.94026 
L 249.428571 622.94026 
L 217.542857 622.94026 
L 185.657143 622.234286 
L 153.771429 622.94026 
L 121.885714 620.292857 
L 90 608.428571 
L 90 619.214286 
z
" style="fill:#2e6e8e;"/>
    <path clip-path="url(#p0dd2865c1c)" d="M 105.942857 552.342857 
L 116.571429 513.514286 
L 90 485.779592 
L 90 499.646939 
L 103.285714 513.514286 
L 95.978571 552.342857 
L 90 559.623214 
L 90 571.757143 
z
" style="fill:#2e6e8e;"/>
    <path clip-path="url(#p0dd2865c1c)" d="M 281.314286 480.232653 
L 289.285714 474.685714 
L 281.314286 455.271429 
L 278.125714 474.685714 
z
" style="fill:#2e6e8e;"/>
    <path clip-path="url(#p0dd2865c1c)" d="M 99.110204 435.857143 
L 109.131429 397.028571 
L 90 375.849351 
L 90 384.674026 
L 101.16 397.028571 
L 90 431.003571 
L 90 435.857143 
L 90 455.271429 
z
" style="fill:#2e6e8e;"/>
    <path clip-path="url(#p0dd2865c1c)" d="M 185.657143 358.2 
L 217.542857 387.321429 
L 236.674286 358.2 
L 249.428571 319.371429 
L 217.542857 319.371429 
L 185.657143 358.2 
z
M 212.228571 358.2 
L 217.542857 351.728571 
L 220.731429 358.2 
L 217.542857 363.053571 
z
" style="fill:#2e6e8e;"/>
    <path clip-path="url(#p0dd2865c1c)" d="M 96.377143 319.371429 
L 121.885714 297.183673 
L 137.828571 319.371429 
L 153.771429 332.314286 
L 171.991837 319.371429 
L 175.028571 280.542857 
L 185.657143 241.714286 
L 153.771429 254.657143 
L 137.828571 241.714286 
L 153.771429 202.885714 
L 121.885714 164.057143 
L 121.885714 125.228571 
L 121.885714 86.4 
L 90 86.4 
L 90 125.228571 
L 90 164.057143 
L 90 183.471429 
L 105.942857 202.885714 
L 97.971429 241.714286 
L 121.885714 270.835714 
L 137.828571 280.542857 
L 121.885714 283.316327 
L 90 309.664286 
L 90 319.371429 
L 90 325.842857 
z
M 147.792857 319.371429 
L 153.771429 290.25 
L 160.604082 319.371429 
L 153.771429 324.225 
z
" style="fill:#2e6e8e;"/>
   </g>
   <g id="PathCollection_4">
    <path clip-path="url(#p0dd2865c1c)" d="M 121.885714 620.292857 
L 153.771429 622.94026 
L 185.657143 622.234286 
L 217.542857 622.94026 
L 249.428571 622.94026 
L 281.314286 622.94026 
L 313.2 622.94026 
L 345.085714 622.94026 
L 376.971429 622.234286 
L 408.857143 622.234286 
L 440.742857 622.234286 
L 472.628571 622.234286 
L 504.514286 622.234286 
L 536.4 622.234286 
L 536.4 612.527143 
L 504.514286 612.527143 
L 472.628571 612.527143 
L 440.742857 612.527143 
L 408.857143 612.527143 
L 376.971429 612.527143 
L 345.085714 614.115584 
L 313.2 614.115584 
L 281.314286 614.115584 
L 249.428571 614.115584 
L 217.542857 614.115584 
L 185.657143 612.527143 
L 153.771429 614.115584 
L 121.885714 612.203571 
L 90 597.642857 
L 90 608.428571 
z
" style="fill:#21908d;"/>
    <path clip-path="url(#p0dd2865c1c)" d="M 115.907143 552.342857 
L 121.885714 532.928571 
L 145.8 513.514286 
L 121.885714 498.953571 
L 95.314286 474.685714 
L 110.497959 435.857143 
L 117.102857 397.028571 
L 90 367.024675 
L 90 375.849351 
L 109.131429 397.028571 
L 99.110204 435.857143 
L 90 455.271429 
L 90 474.685714 
L 90 485.779592 
L 116.571429 513.514286 
L 105.942857 552.342857 
L 90 571.757143 
L 90 583.891071 
z
" style="fill:#21908d;"/>
    <path clip-path="url(#p0dd2865c1c)" d="M 281.314286 494.1 
L 309.214286 474.685714 
L 290.88 435.857143 
L 281.314286 406.735714 
L 273.342857 397.028571 
L 265.371429 358.2 
L 262.714286 319.371429 
L 257.4 280.542857 
L 249.428571 274.071429 
L 233.485714 280.542857 
L 217.542857 287.014286 
L 209.571429 280.542857 
L 212.228571 241.714286 
L 185.657143 217.446429 
L 173.7 202.885714 
L 153.771429 170.528571 
L 148.457143 164.057143 
L 148.457143 125.228571 
L 153.771429 105.814286 
L 159.085714 86.4 
L 153.771429 86.4 
L 121.885714 86.4 
L 121.885714 125.228571 
L 121.885714 164.057143 
L 153.771429 202.885714 
L 137.828571 241.714286 
L 153.771429 254.657143 
L 185.657143 241.714286 
L 175.028571 280.542857 
L 171.991837 319.371429 
L 153.771429 332.314286 
L 137.828571 319.371429 
L 121.885714 297.183673 
L 96.377143 319.371429 
L 90 325.842857 
L 90 342.021429 
L 112.32 319.371429 
L 121.885714 311.05102 
L 127.864286 319.371429 
L 153.771429 340.403571 
L 175.692857 358.2 
L 185.657143 372.067347 
L 209.571429 397.028571 
L 217.542857 404.308929 
L 247.15102 435.857143 
L 249.428571 438.630612 
L 270.154286 474.685714 
z
M 278.125714 474.685714 
L 281.314286 455.271429 
L 289.285714 474.685714 
L 281.314286 480.232653 
z
M 185.657143 358.2 
L 217.542857 319.371429 
L 249.428571 319.371429 
L 236.674286 358.2 
L 217.542857 387.321429 
L 185.657143 358.2 
z
M 183.379592 319.371429 
L 185.657143 309.664286 
L 190.971429 319.371429 
L 185.657143 325.842857 
z
" style="fill:#21908d;"/>
   </g>
   <g id="PathCollection_5">
    <path clip-path="url(#p0dd2865c1c)" d="M 121.885714 612.203571 
L 153.771429 614.115584 
L 185.657143 612.527143 
L 217.542857 614.115584 
L 249.428571 614.115584 
L 281.314286 614.115584 
L 313.2 614.115584 
L 345.085714 614.115584 
L 376.971429 612.527143 
L 408.857143 612.527143 
L 440.742857 612.527143 
L 472.628571 612.527143 
L 504.514286 612.527143 
L 536.4 612.527143 
L 536.4 602.82 
L 504.514286 602.82 
L 472.628571 602.82 
L 440.742857 602.82 
L 408.857143 602.82 
L 376.971429 602.82 
L 345.085714 605.290909 
L 313.2 605.290909 
L 281.314286 605.290909 
L 249.428571 605.290909 
L 217.542857 605.290909 
L 185.657143 602.82 
L 153.771429 605.290909 
L 121.885714 604.114286 
L 96.377143 591.171429 
L 121.885714 560.108571 
L 153.771429 552.342857 
L 185.657143 552.342857 
L 185.657143 552.342857 
L 217.542857 513.514286 
L 249.428571 513.514286 
L 249.428571 513.514286 
L 281.314286 507.967347 
L 291.942857 513.514286 
L 313.2 539.4 
L 329.142857 552.342857 
L 345.085714 560.108571 
L 353.057143 552.342857 
L 353.057143 513.514286 
L 345.085714 474.685714 
L 345.085714 474.685714 
L 313.2 448.8 
L 306.822857 435.857143 
L 302.571429 397.028571 
L 313.2 358.2 
L 345.085714 377.614286 
L 355.714286 358.2 
L 345.085714 348.492857 
L 313.2 319.371429 
L 313.2 319.371429 
L 313.2 319.371429 
L 281.314286 332.314286 
L 276 319.371429 
L 281.314286 299.957143 
L 297.257143 280.542857 
L 281.314286 261.128571 
L 249.428571 241.714286 
L 281.314286 202.885714 
L 281.314286 202.885714 
L 281.314286 202.885714 
L 249.428571 164.057143 
L 249.428571 125.228571 
L 249.428571 86.4 
L 249.428571 86.4 
L 217.542857 86.4 
L 185.657143 86.4 
L 159.085714 86.4 
L 153.771429 105.814286 
L 148.457143 125.228571 
L 148.457143 164.057143 
L 153.771429 170.528571 
L 173.7 202.885714 
L 185.657143 217.446429 
L 212.228571 241.714286 
L 209.571429 280.542857 
L 217.542857 287.014286 
L 233.485714 280.542857 
L 249.428571 274.071429 
L 257.4 280.542857 
L 262.714286 319.371429 
L 265.371429 358.2 
L 273.342857 397.028571 
L 281.314286 406.735714 
L 290.88 435.857143 
L 309.214286 474.685714 
L 281.314286 494.1 
L 270.154286 474.685714 
L 249.428571 438.630612 
L 247.15102 435.857143 
L 217.542857 404.308929 
L 209.571429 397.028571 
L 185.657143 372.067347 
L 175.692857 358.2 
L 153.771429 340.403571 
L 127.864286 319.371429 
L 121.885714 311.05102 
L 112.32 319.371429 
L 90 342.021429 
L 90 358.2 
L 90 367.024675 
L 117.102857 397.028571 
L 110.497959 435.857143 
L 95.314286 474.685714 
L 121.885714 498.953571 
L 145.8 513.514286 
L 121.885714 532.928571 
L 115.907143 552.342857 
L 90 583.891071 
L 90 591.171429 
L 90 597.642857 
z
M 121.885714 474.685714 
L 121.885714 435.857143 
L 132.514286 397.028571 
L 121.885714 384.085714 
L 90 358.2 
L 121.885714 332.314286 
L 153.771429 348.492857 
L 165.728571 358.2 
L 185.657143 385.934694 
L 196.285714 397.028571 
L 217.542857 416.442857 
L 235.763265 435.857143 
L 249.428571 452.497959 
L 262.182857 474.685714 
L 249.428571 513.514286 
L 217.542857 513.514286 
L 185.657143 503.807143 
L 153.771429 494.1 
z
" style="fill:#2db27d;"/>
    <path clip-path="url(#p0dd2865c1c)" d="M 185.657143 325.842857 
L 190.971429 319.371429 
L 185.657143 309.664286 
L 183.379592 319.371429 
z
" style="fill:#2db27d;"/>
   </g>
   <g id="PathCollection_6">
    <path clip-path="url(#p0dd2865c1c)" d="M 121.885714 604.114286 
L 153.771429 605.290909 
L 185.657143 602.82 
L 217.542857 605.290909 
L 249.428571 605.290909 
L 281.314286 605.290909 
L 313.2 605.290909 
L 345.085714 605.290909 
L 376.971429 602.82 
L 408.857143 602.82 
L 440.742857 602.82 
L 472.628571 602.82 
L 504.514286 602.82 
L 536.4 602.82 
L 536.4 593.112857 
L 504.514286 593.112857 
L 472.628571 593.112857 
L 440.742857 593.112857 
L 408.857143 593.112857 
L 376.971429 593.112857 
L 345.085714 596.466234 
L 313.2 596.466234 
L 281.314286 596.466234 
L 249.428571 596.466234 
L 217.542857 596.466234 
L 185.657143 593.112857 
L 153.771429 596.466234 
L 121.885714 596.025 
L 112.32 591.171429 
L 121.885714 579.522857 
L 153.771429 576.610714 
L 185.657143 584.7 
L 217.542857 571.757143 
L 249.428571 571.757143 
L 281.314286 571.757143 
L 313.2 571.757143 
L 345.085714 579.522857 
L 372.985714 552.342857 
L 372.985714 513.514286 
L 371.657143 474.685714 
L 345.085714 442.328571 
L 337.114286 435.857143 
L 345.085714 426.15 
L 376.971429 416.442857 
L 392.914286 397.028571 
L 392.914286 358.2 
L 376.971429 338.785714 
L 345.085714 324.225 
L 339.771429 319.371429 
L 345.085714 309.664286 
L 369 280.542857 
L 361.028571 241.714286 
L 361.028571 202.885714 
L 376.971429 183.471429 
L 408.857143 183.471429 
L 424.8 164.057143 
L 424.8 125.228571 
L 408.857143 105.814286 
L 376.971429 105.814286 
L 361.028571 86.4 
L 345.085714 86.4 
L 313.2 86.4 
L 281.314286 86.4 
L 249.428571 86.4 
L 249.428571 125.228571 
L 249.428571 164.057143 
L 281.314286 202.885714 
L 281.314286 202.885714 
L 281.314286 202.885714 
L 249.428571 241.714286 
L 281.314286 261.128571 
L 297.257143 280.542857 
L 281.314286 299.957143 
L 276 319.371429 
L 281.314286 332.314286 
L 313.2 319.371429 
L 313.2 319.371429 
L 313.2 319.371429 
L 345.085714 348.492857 
L 355.714286 358.2 
L 345.085714 377.614286 
L 313.2 358.2 
L 302.571429 397.028571 
L 306.822857 435.857143 
L 313.2 448.8 
L 345.085714 474.685714 
L 345.085714 474.685714 
L 353.057143 513.514286 
L 353.057143 552.342857 
L 345.085714 560.108571 
L 329.142857 552.342857 
L 313.2 539.4 
L 291.942857 513.514286 
L 281.314286 507.967347 
L 249.428571 513.514286 
L 249.428571 513.514286 
L 217.542857 513.514286 
L 185.657143 552.342857 
L 185.657143 552.342857 
L 153.771429 552.342857 
L 121.885714 560.108571 
L 96.377143 591.171429 
z
" style="fill:#73d056;"/>
    <path clip-path="url(#p0dd2865c1c)" d="M 153.771429 494.1 
L 185.657143 503.807143 
L 217.542857 513.514286 
L 249.428571 513.514286 
L 262.182857 474.685714 
L 249.428571 452.497959 
L 235.763265 435.857143 
L 217.542857 416.442857 
L 196.285714 397.028571 
L 185.657143 385.934694 
L 165.728571 358.2 
L 153.771429 348.492857 
L 121.885714 332.314286 
L 90 358.2 
L 121.885714 384.085714 
L 132.514286 397.028571 
L 121.885714 435.857143 
L 121.885714 474.685714 
z
M 169.714286 474.685714 
L 169.714286 435.857143 
L 185.657143 416.442857 
L 217.542857 428.576786 
L 224.37551 435.857143 
L 249.428571 466.365306 
L 254.211429 474.685714 
L 249.428571 489.246429 
L 217.542857 481.157143 
L 185.657143 479.539286 
z
M 137.828571 358.2 
L 153.771429 356.582143 
L 155.764286 358.2 
L 153.771429 377.614286 
z
" style="fill:#73d056;"/>
   </g>
   <g id="PathCollection_7">
    <path clip-path="url(#p0dd2865c1c)" d="M 121.885714 596.025 
L 153.771429 596.466234 
L 185.657143 593.112857 
L 217.542857 596.466234 
L 249.428571 596.466234 
L 281.314286 596.466234 
L 313.2 596.466234 
L 345.085714 596.466234 
L 376.971429 593.112857 
L 408.857143 593.112857 
L 440.742857 593.112857 
L 472.628571 593.112857 
L 504.514286 593.112857 
L 536.4 593.112857 
L 536.4 591.171429 
L 536.4 552.342857 
L 536.4 513.514286 
L 536.4 474.685714 
L 536.4 435.857143 
L 536.4 397.028571 
L 536.4 358.2 
L 536.4 319.371429 
L 536.4 280.542857 
L 536.4 241.714286 
L 536.4 202.885714 
L 536.4 164.057143 
L 536.4 125.228571 
L 536.4 86.4 
L 504.514286 86.4 
L 472.628571 86.4 
L 440.742857 86.4 
L 408.857143 86.4 
L 376.971429 86.4 
L 361.028571 86.4 
L 376.971429 105.814286 
L 408.857143 105.814286 
L 424.8 125.228571 
L 424.8 164.057143 
L 408.857143 183.471429 
L 376.971429 183.471429 
L 361.028571 202.885714 
L 361.028571 241.714286 
L 369 280.542857 
L 345.085714 309.664286 
L 339.771429 319.371429 
L 345.085714 324.225 
L 376.971429 338.785714 
L 392.914286 358.2 
L 392.914286 397.028571 
L 376.971429 416.442857 
L 345.085714 426.15 
L 337.114286 435.857143 
L 345.085714 442.328571 
L 371.657143 474.685714 
L 372.985714 513.514286 
L 372.985714 552.342857 
L 345.085714 579.522857 
L 313.2 571.757143 
L 281.314286 571.757143 
L 249.428571 571.757143 
L 217.542857 571.757143 
L 185.657143 584.7 
L 153.771429 576.610714 
L 121.885714 579.522857 
L 112.32 591.171429 
z
" style="fill:#d0e11c;"/>
    <path clip-path="url(#p0dd2865c1c)" d="M 185.657143 479.539286 
L 217.542857 481.157143 
L 249.428571 489.246429 
L 254.211429 474.685714 
L 249.428571 466.365306 
L 224.37551 435.857143 
L 217.542857 428.576786 
L 185.657143 416.442857 
L 169.714286 435.857143 
L 169.714286 474.685714 
z
" style="fill:#d0e11c;"/>
    <path clip-path="url(#p0dd2865c1c)" d="M 153.771429 377.614286 
L 155.764286 358.2 
L 153.771429 356.582143 
L 137.828571 358.2 
z
" style="fill:#d0e11c;"/>
   </g>
   <g id="matplotlib.axis_1">
    <g id="xtick_1">
     <g id="line2d_1">
      <defs>
       <path d="M 0 0 
L 0 3.5 
" id="mb600aad663" style="stroke:#000000;stroke-width:0.8;"/>
      </defs>
      <g>
       <use style="stroke:#000000;stroke-width:0.8;" x="171.485714" xlink:href="#mb600aad663" y="630"/>
      </g>
     </g>
     <g id="text_1">
      <!-- 25 -->
      <g transform="translate(157.488214 653.716563)scale(0.22 -0.22)">
       <defs>
        <path d="M 19.1875 8.296875 
L 53.609375 8.296875 
L 53.609375 0 
L 7.328125 0 
L 7.328125 8.296875 
Q 12.9375 14.109375 22.625 23.890625 
Q 32.328125 33.6875 34.8125 36.53125 
Q 39.546875 41.84375 41.421875 45.53125 
Q 43.3125 49.21875 43.3125 52.78125 
Q 43.3125 58.59375 39.234375 62.25 
Q 35.15625 65.921875 28.609375 65.921875 
Q 23.96875 65.921875 18.8125 64.3125 
Q 13.671875 62.703125 7.8125 59.421875 
L 7.8125 69.390625 
Q 13.765625 71.78125 18.9375 73 
Q 24.125 74.21875 28.421875 74.21875 
Q 39.75 74.21875 46.484375 68.546875 
Q 53.21875 62.890625 53.21875 53.421875 
Q 53.21875 48.921875 51.53125 44.890625 
Q 49.859375 40.875 45.40625 35.40625 
Q 44.1875 33.984375 37.640625 27.21875 
Q 31.109375 20.453125 19.1875 8.296875 
z
" id="DejaVuSans-50"/>
        <path d="M 10.796875 72.90625 
L 49.515625 72.90625 
L 49.515625 64.59375 
L 19.828125 64.59375 
L 19.828125 46.734375 
Q 21.96875 47.46875 24.109375 47.828125 
Q 26.265625 48.1875 28.421875 48.1875 
Q 40.625 48.1875 47.75 41.5 
Q 54.890625 34.8125 54.890625 23.390625 
Q 54.890625 11.625 47.5625 5.09375 
Q 40.234375 -1.421875 26.90625 -1.421875 
Q 22.3125 -1.421875 17.546875 -0.640625 
Q 12.796875 0.140625 7.71875 1.703125 
L 7.71875 11.625 
Q 12.109375 9.234375 16.796875 8.0625 
Q 21.484375 6.890625 26.703125 6.890625 
Q 35.15625 6.890625 40.078125 11.328125 
Q 45.015625 15.765625 45.015625 23.390625 
Q 45.015625 31 40.078125 35.4375 
Q 35.15625 39.890625 26.703125 39.890625 
Q 22.75 39.890625 18.8125 39.015625 
Q 14.890625 38.140625 10.796875 36.28125 
z
" id="DejaVuSans-53"/>
       </defs>
       <use xlink:href="#DejaVuSans-50"/>
       <use x="63.623047" xlink:href="#DejaVuSans-53"/>
      </g>
     </g>
    </g>
    <g id="xtick_2">
     <g id="line2d_2">
      <g>
       <use style="stroke:#000000;stroke-width:0.8;" x="260.057143" xlink:href="#mb600aad663" y="630"/>
      </g>
     </g>
     <g id="text_2">
      <!-- 50 -->
      <g transform="translate(246.059643 653.716563)scale(0.22 -0.22)">
       <defs>
        <path d="M 31.78125 66.40625 
Q 24.171875 66.40625 20.328125 58.90625 
Q 16.5 51.421875 16.5 36.375 
Q 16.5 21.390625 20.328125 13.890625 
Q 24.171875 6.390625 31.78125 6.390625 
Q 39.453125 6.390625 43.28125 13.890625 
Q 47.125 21.390625 47.125 36.375 
Q 47.125 51.421875 43.28125 58.90625 
Q 39.453125 66.40625 31.78125 66.40625 
z
M 31.78125 74.21875 
Q 44.046875 74.21875 50.515625 64.515625 
Q 56.984375 54.828125 56.984375 36.375 
Q 56.984375 17.96875 50.515625 8.265625 
Q 44.046875 -1.421875 31.78125 -1.421875 
Q 19.53125 -1.421875 13.0625 8.265625 
Q 6.59375 17.96875 6.59375 36.375 
Q 6.59375 54.828125 13.0625 64.515625 
Q 19.53125 74.21875 31.78125 74.21875 
z
" id="DejaVuSans-48"/>
       </defs>
       <use xlink:href="#DejaVuSans-53"/>
       <use x="63.623047" xlink:href="#DejaVuSans-48"/>
      </g>
     </g>
    </g>
    <g id="xtick_3">
     <g id="line2d_3">
      <g>
       <use style="stroke:#000000;stroke-width:0.8;" x="348.628571" xlink:href="#mb600aad663" y="630"/>
      </g>
     </g>
     <g id="text_3">
      <!-- 75 -->
      <g transform="translate(334.631071 653.716563)scale(0.22 -0.22)">
       <defs>
        <path d="M 8.203125 72.90625 
L 55.078125 72.90625 
L 55.078125 68.703125 
L 28.609375 0 
L 18.3125 0 
L 43.21875 64.59375 
L 8.203125 64.59375 
z
" id="DejaVuSans-55"/>
       </defs>
       <use xlink:href="#DejaVuSans-55"/>
       <use x="63.623047" xlink:href="#DejaVuSans-53"/>
      </g>
     </g>
    </g>
    <g id="xtick_4">
     <g id="line2d_4">
      <g>
       <use style="stroke:#000000;stroke-width:0.8;" x="437.2" xlink:href="#mb600aad663" y="630"/>
      </g>
     </g>
     <g id="text_4">
      <!-- 100 -->
      <g transform="translate(416.20375 653.716563)scale(0.22 -0.22)">
       <defs>
        <path d="M 12.40625 8.296875 
L 28.515625 8.296875 
L 28.515625 63.921875 
L 10.984375 60.40625 
L 10.984375 69.390625 
L 28.421875 72.90625 
L 38.28125 72.90625 
L 38.28125 8.296875 
L 54.390625 8.296875 
L 54.390625 0 
L 12.40625 0 
z
" id="DejaVuSans-49"/>
       </defs>
       <use xlink:href="#DejaVuSans-49"/>
       <use x="63.623047" xlink:href="#DejaVuSans-48"/>
       <use x="127.246094" xlink:href="#DejaVuSans-48"/>
      </g>
     </g>
    </g>
    <g id="xtick_5">
     <g id="line2d_5">
      <g>
       <use style="stroke:#000000;stroke-width:0.8;" x="525.771429" xlink:href="#mb600aad663" y="630"/>
      </g>
     </g>
     <g id="text_5">
      <!-- 125 -->
      <g transform="translate(504.775179 653.716563)scale(0.22 -0.22)">
       <use xlink:href="#DejaVuSans-49"/>
       <use x="63.623047" xlink:href="#DejaVuSans-50"/>
       <use x="127.246094" xlink:href="#DejaVuSans-53"/>
      </g>
     </g>
    </g>
    <g id="text_6">
     <!-- Data Subspace Dim -->
     <g transform="translate(150.141328 687.366719)scale(0.33 -0.33)">
      <defs>
       <path d="M 19.671875 64.796875 
L 19.671875 8.109375 
L 31.59375 8.109375 
Q 46.6875 8.109375 53.6875 14.9375 
Q 60.6875 21.78125 60.6875 36.53125 
Q 60.6875 51.171875 53.6875 57.984375 
Q 46.6875 64.796875 31.59375 64.796875 
z
M 9.8125 72.90625 
L 30.078125 72.90625 
Q 51.265625 72.90625 61.171875 64.09375 
Q 71.09375 55.28125 71.09375 36.53125 
Q 71.09375 17.671875 61.125 8.828125 
Q 51.171875 0 30.078125 0 
L 9.8125 0 
z
" id="DejaVuSans-68"/>
       <path d="M 34.28125 27.484375 
Q 23.390625 27.484375 19.1875 25 
Q 14.984375 22.515625 14.984375 16.5 
Q 14.984375 11.71875 18.140625 8.90625 
Q 21.296875 6.109375 26.703125 6.109375 
Q 34.1875 6.109375 38.703125 11.40625 
Q 43.21875 16.703125 43.21875 25.484375 
L 43.21875 27.484375 
z
M 52.203125 31.203125 
L 52.203125 0 
L 43.21875 0 
L 43.21875 8.296875 
Q 40.140625 3.328125 35.546875 0.953125 
Q 30.953125 -1.421875 24.3125 -1.421875 
Q 15.921875 -1.421875 10.953125 3.296875 
Q 6 8.015625 6 15.921875 
Q 6 25.140625 12.171875 29.828125 
Q 18.359375 34.515625 30.609375 34.515625 
L 43.21875 34.515625 
L 43.21875 35.40625 
Q 43.21875 41.609375 39.140625 45 
Q 35.0625 48.390625 27.6875 48.390625 
Q 23 48.390625 18.546875 47.265625 
Q 14.109375 46.140625 10.015625 43.890625 
L 10.015625 52.203125 
Q 14.9375 54.109375 19.578125 55.046875 
Q 24.21875 56 28.609375 56 
Q 40.484375 56 46.34375 49.84375 
Q 52.203125 43.703125 52.203125 31.203125 
z
" id="DejaVuSans-97"/>
       <path d="M 18.3125 70.21875 
L 18.3125 54.6875 
L 36.8125 54.6875 
L 36.8125 47.703125 
L 18.3125 47.703125 
L 18.3125 18.015625 
Q 18.3125 11.328125 20.140625 9.421875 
Q 21.96875 7.515625 27.59375 7.515625 
L 36.8125 7.515625 
L 36.8125 0 
L 27.59375 0 
Q 17.1875 0 13.234375 3.875 
Q 9.28125 7.765625 9.28125 18.015625 
L 9.28125 47.703125 
L 2.6875 47.703125 
L 2.6875 54.6875 
L 9.28125 54.6875 
L 9.28125 70.21875 
z
" id="DejaVuSans-116"/>
       <path id="DejaVuSans-32"/>
       <path d="M 53.515625 70.515625 
L 53.515625 60.890625 
Q 47.90625 63.578125 42.921875 64.890625 
Q 37.9375 66.21875 33.296875 66.21875 
Q 25.25 66.21875 20.875 63.09375 
Q 16.5 59.96875 16.5 54.203125 
Q 16.5 49.359375 19.40625 46.890625 
Q 22.3125 44.4375 30.421875 42.921875 
L 36.375 41.703125 
Q 47.40625 39.59375 52.65625 34.296875 
Q 57.90625 29 57.90625 20.125 
Q 57.90625 9.515625 50.796875 4.046875 
Q 43.703125 -1.421875 29.984375 -1.421875 
Q 24.8125 -1.421875 18.96875 -0.25 
Q 13.140625 0.921875 6.890625 3.21875 
L 6.890625 13.375 
Q 12.890625 10.015625 18.65625 8.296875 
Q 24.421875 6.59375 29.984375 6.59375 
Q 38.421875 6.59375 43.015625 9.90625 
Q 47.609375 13.234375 47.609375 19.390625 
Q 47.609375 24.75 44.3125 27.78125 
Q 41.015625 30.8125 33.5 32.328125 
L 27.484375 33.5 
Q 16.453125 35.6875 11.515625 40.375 
Q 6.59375 45.0625 6.59375 53.421875 
Q 6.59375 63.09375 13.40625 68.65625 
Q 20.21875 74.21875 32.171875 74.21875 
Q 37.3125 74.21875 42.625 73.28125 
Q 47.953125 72.359375 53.515625 70.515625 
z
" id="DejaVuSans-83"/>
       <path d="M 8.5 21.578125 
L 8.5 54.6875 
L 17.484375 54.6875 
L 17.484375 21.921875 
Q 17.484375 14.15625 20.5 10.265625 
Q 23.53125 6.390625 29.59375 6.390625 
Q 36.859375 6.390625 41.078125 11.03125 
Q 45.3125 15.671875 45.3125 23.6875 
L 45.3125 54.6875 
L 54.296875 54.6875 
L 54.296875 0 
L 45.3125 0 
L 45.3125 8.40625 
Q 42.046875 3.421875 37.71875 1 
Q 33.40625 -1.421875 27.6875 -1.421875 
Q 18.265625 -1.421875 13.375 4.4375 
Q 8.5 10.296875 8.5 21.578125 
z
M 31.109375 56 
z
" id="DejaVuSans-117"/>
       <path d="M 48.6875 27.296875 
Q 48.6875 37.203125 44.609375 42.84375 
Q 40.53125 48.484375 33.40625 48.484375 
Q 26.265625 48.484375 22.1875 42.84375 
Q 18.109375 37.203125 18.109375 27.296875 
Q 18.109375 17.390625 22.1875 11.75 
Q 26.265625 6.109375 33.40625 6.109375 
Q 40.53125 6.109375 44.609375 11.75 
Q 48.6875 17.390625 48.6875 27.296875 
z
M 18.109375 46.390625 
Q 20.953125 51.265625 25.265625 53.625 
Q 29.59375 56 35.59375 56 
Q 45.5625 56 51.78125 48.09375 
Q 58.015625 40.1875 58.015625 27.296875 
Q 58.015625 14.40625 51.78125 6.484375 
Q 45.5625 -1.421875 35.59375 -1.421875 
Q 29.59375 -1.421875 25.265625 0.953125 
Q 20.953125 3.328125 18.109375 8.203125 
L 18.109375 0 
L 9.078125 0 
L 9.078125 75.984375 
L 18.109375 75.984375 
z
" id="DejaVuSans-98"/>
       <path d="M 44.28125 53.078125 
L 44.28125 44.578125 
Q 40.484375 46.53125 36.375 47.5 
Q 32.28125 48.484375 27.875 48.484375 
Q 21.1875 48.484375 17.84375 46.4375 
Q 14.5 44.390625 14.5 40.28125 
Q 14.5 37.15625 16.890625 35.375 
Q 19.28125 33.59375 26.515625 31.984375 
L 29.59375 31.296875 
Q 39.15625 29.25 43.1875 25.515625 
Q 47.21875 21.78125 47.21875 15.09375 
Q 47.21875 7.46875 41.1875 3.015625 
Q 35.15625 -1.421875 24.609375 -1.421875 
Q 20.21875 -1.421875 15.453125 -0.5625 
Q 10.6875 0.296875 5.421875 2 
L 5.421875 11.28125 
Q 10.40625 8.6875 15.234375 7.390625 
Q 20.0625 6.109375 24.8125 6.109375 
Q 31.15625 6.109375 34.5625 8.28125 
Q 37.984375 10.453125 37.984375 14.40625 
Q 37.984375 18.0625 35.515625 20.015625 
Q 33.0625 21.96875 24.703125 23.78125 
L 21.578125 24.515625 
Q 13.234375 26.265625 9.515625 29.90625 
Q 5.8125 33.546875 5.8125 39.890625 
Q 5.8125 47.609375 11.28125 51.796875 
Q 16.75 56 26.8125 56 
Q 31.78125 56 36.171875 55.265625 
Q 40.578125 54.546875 44.28125 53.078125 
z
" id="DejaVuSans-115"/>
       <path d="M 18.109375 8.203125 
L 18.109375 -20.796875 
L 9.078125 -20.796875 
L 9.078125 54.6875 
L 18.109375 54.6875 
L 18.109375 46.390625 
Q 20.953125 51.265625 25.265625 53.625 
Q 29.59375 56 35.59375 56 
Q 45.5625 56 51.78125 48.09375 
Q 58.015625 40.1875 58.015625 27.296875 
Q 58.015625 14.40625 51.78125 6.484375 
Q 45.5625 -1.421875 35.59375 -1.421875 
Q 29.59375 -1.421875 25.265625 0.953125 
Q 20.953125 3.328125 18.109375 8.203125 
z
M 48.6875 27.296875 
Q 48.6875 37.203125 44.609375 42.84375 
Q 40.53125 48.484375 33.40625 48.484375 
Q 26.265625 48.484375 22.1875 42.84375 
Q 18.109375 37.203125 18.109375 27.296875 
Q 18.109375 17.390625 22.1875 11.75 
Q 26.265625 6.109375 33.40625 6.109375 
Q 40.53125 6.109375 44.609375 11.75 
Q 48.6875 17.390625 48.6875 27.296875 
z
" id="DejaVuSans-112"/>
       <path d="M 48.78125 52.59375 
L 48.78125 44.1875 
Q 44.96875 46.296875 41.140625 47.34375 
Q 37.3125 48.390625 33.40625 48.390625 
Q 24.65625 48.390625 19.8125 42.84375 
Q 14.984375 37.3125 14.984375 27.296875 
Q 14.984375 17.28125 19.8125 11.734375 
Q 24.65625 6.203125 33.40625 6.203125 
Q 37.3125 6.203125 41.140625 7.25 
Q 44.96875 8.296875 48.78125 10.40625 
L 48.78125 2.09375 
Q 45.015625 0.34375 40.984375 -0.53125 
Q 36.96875 -1.421875 32.421875 -1.421875 
Q 20.0625 -1.421875 12.78125 6.34375 
Q 5.515625 14.109375 5.515625 27.296875 
Q 5.515625 40.671875 12.859375 48.328125 
Q 20.21875 56 33.015625 56 
Q 37.15625 56 41.109375 55.140625 
Q 45.0625 54.296875 48.78125 52.59375 
z
" id="DejaVuSans-99"/>
       <path d="M 56.203125 29.59375 
L 56.203125 25.203125 
L 14.890625 25.203125 
Q 15.484375 15.921875 20.484375 11.0625 
Q 25.484375 6.203125 34.421875 6.203125 
Q 39.59375 6.203125 44.453125 7.46875 
Q 49.3125 8.734375 54.109375 11.28125 
L 54.109375 2.78125 
Q 49.265625 0.734375 44.1875 -0.34375 
Q 39.109375 -1.421875 33.890625 -1.421875 
Q 20.796875 -1.421875 13.15625 6.1875 
Q 5.515625 13.8125 5.515625 26.8125 
Q 5.515625 40.234375 12.765625 48.109375 
Q 20.015625 56 32.328125 56 
Q 43.359375 56 49.78125 48.890625 
Q 56.203125 41.796875 56.203125 29.59375 
z
M 47.21875 32.234375 
Q 47.125 39.59375 43.09375 43.984375 
Q 39.0625 48.390625 32.421875 48.390625 
Q 24.90625 48.390625 20.390625 44.140625 
Q 15.875 39.890625 15.1875 32.171875 
z
" id="DejaVuSans-101"/>
       <path d="M 9.421875 54.6875 
L 18.40625 54.6875 
L 18.40625 0 
L 9.421875 0 
z
M 9.421875 75.984375 
L 18.40625 75.984375 
L 18.40625 64.59375 
L 9.421875 64.59375 
z
" id="DejaVuSans-105"/>
       <path d="M 52 44.1875 
Q 55.375 50.25 60.0625 53.125 
Q 64.75 56 71.09375 56 
Q 79.640625 56 84.28125 50.015625 
Q 88.921875 44.046875 88.921875 33.015625 
L 88.921875 0 
L 79.890625 0 
L 79.890625 32.71875 
Q 79.890625 40.578125 77.09375 44.375 
Q 74.3125 48.1875 68.609375 48.1875 
Q 61.625 48.1875 57.5625 43.546875 
Q 53.515625 38.921875 53.515625 30.90625 
L 53.515625 0 
L 44.484375 0 
L 44.484375 32.71875 
Q 44.484375 40.625 41.703125 44.40625 
Q 38.921875 48.1875 33.109375 48.1875 
Q 26.21875 48.1875 22.15625 43.53125 
Q 18.109375 38.875 18.109375 30.90625 
L 18.109375 0 
L 9.078125 0 
L 9.078125 54.6875 
L 18.109375 54.6875 
L 18.109375 46.1875 
Q 21.1875 51.21875 25.484375 53.609375 
Q 29.78125 56 35.6875 56 
Q 41.65625 56 45.828125 52.96875 
Q 50 49.953125 52 44.1875 
z
" id="DejaVuSans-109"/>
      </defs>
      <use xlink:href="#DejaVuSans-68"/>
      <use x="77.001953" xlink:href="#DejaVuSans-97"/>
      <use x="138.28125" xlink:href="#DejaVuSans-116"/>
      <use x="177.490234" xlink:href="#DejaVuSans-97"/>
      <use x="238.769531" xlink:href="#DejaVuSans-32"/>
      <use x="270.556641" xlink:href="#DejaVuSans-83"/>
      <use x="334.033203" xlink:href="#DejaVuSans-117"/>
      <use x="397.412109" xlink:href="#DejaVuSans-98"/>
      <use x="460.888672" xlink:href="#DejaVuSans-115"/>
      <use x="512.988281" xlink:href="#DejaVuSans-112"/>
      <use x="576.464844" xlink:href="#DejaVuSans-97"/>
      <use x="637.744141" xlink:href="#DejaVuSans-99"/>
      <use x="692.724609" xlink:href="#DejaVuSans-101"/>
      <use x="754.248047" xlink:href="#DejaVuSans-32"/>
      <use x="786.035156" xlink:href="#DejaVuSans-68"/>
      <use x="863.037109" xlink:href="#DejaVuSans-105"/>
      <use x="890.820312" xlink:href="#DejaVuSans-109"/>
     </g>
    </g>
   </g>
   <g id="matplotlib.axis_2">
    <g id="ytick_1">
     <g id="line2d_6">
      <defs>
       <path d="M 0 0 
L -3.5 0 
" id="me5045a1c2b" style="stroke:#000000;stroke-width:0.8;"/>
      </defs>
      <g>
       <use style="stroke:#000000;stroke-width:0.8;" x="90" xlink:href="#me5045a1c2b" y="530.771429"/>
      </g>
     </g>
     <g id="text_7">
      <!-- 25 -->
      <g transform="translate(55.005 539.12971)scale(0.22 -0.22)">
       <use xlink:href="#DejaVuSans-50"/>
       <use x="63.623047" xlink:href="#DejaVuSans-53"/>
      </g>
     </g>
    </g>
    <g id="ytick_2">
     <g id="line2d_7">
      <g>
       <use style="stroke:#000000;stroke-width:0.8;" x="90" xlink:href="#me5045a1c2b" y="422.914286"/>
      </g>
     </g>
     <g id="text_8">
      <!-- 50 -->
      <g transform="translate(55.005 431.272567)scale(0.22 -0.22)">
       <use xlink:href="#DejaVuSans-53"/>
       <use x="63.623047" xlink:href="#DejaVuSans-48"/>
      </g>
     </g>
    </g>
    <g id="ytick_3">
     <g id="line2d_8">
      <g>
       <use style="stroke:#000000;stroke-width:0.8;" x="90" xlink:href="#me5045a1c2b" y="315.057143"/>
      </g>
     </g>
     <g id="text_9">
      <!-- 75 -->
      <g transform="translate(55.005 323.415424)scale(0.22 -0.22)">
       <use xlink:href="#DejaVuSans-55"/>
       <use x="63.623047" xlink:href="#DejaVuSans-53"/>
      </g>
     </g>
    </g>
    <g id="ytick_4">
     <g id="line2d_9">
      <g>
       <use style="stroke:#000000;stroke-width:0.8;" x="90" xlink:href="#me5045a1c2b" y="207.2"/>
      </g>
     </g>
     <g id="text_10">
      <!-- 100 -->
      <g transform="translate(41.0075 215.558281)scale(0.22 -0.22)">
       <use xlink:href="#DejaVuSans-49"/>
       <use x="63.623047" xlink:href="#DejaVuSans-48"/>
       <use x="127.246094" xlink:href="#DejaVuSans-48"/>
      </g>
     </g>
    </g>
    <g id="ytick_5">
     <g id="line2d_10">
      <g>
       <use style="stroke:#000000;stroke-width:0.8;" x="90" xlink:href="#me5045a1c2b" y="99.342857"/>
      </g>
     </g>
     <g id="text_11">
      <!-- 125 -->
      <g transform="translate(41.0075 107.701138)scale(0.22 -0.22)">
       <use xlink:href="#DejaVuSans-49"/>
       <use x="63.623047" xlink:href="#DejaVuSans-50"/>
       <use x="127.246094" xlink:href="#DejaVuSans-53"/>
      </g>
     </g>
    </g>
    <g id="text_12">
     <!-- Adv Subspace Dim -->
     <g transform="translate(30.144531 513.101484)rotate(-90)scale(0.33 -0.33)">
      <defs>
       <path d="M 34.1875 63.1875 
L 20.796875 26.90625 
L 47.609375 26.90625 
z
M 28.609375 72.90625 
L 39.796875 72.90625 
L 67.578125 0 
L 57.328125 0 
L 50.6875 18.703125 
L 17.828125 18.703125 
L 11.1875 0 
L 0.78125 0 
z
" id="DejaVuSans-65"/>
       <path d="M 45.40625 46.390625 
L 45.40625 75.984375 
L 54.390625 75.984375 
L 54.390625 0 
L 45.40625 0 
L 45.40625 8.203125 
Q 42.578125 3.328125 38.25 0.953125 
Q 33.9375 -1.421875 27.875 -1.421875 
Q 17.96875 -1.421875 11.734375 6.484375 
Q 5.515625 14.40625 5.515625 27.296875 
Q 5.515625 40.1875 11.734375 48.09375 
Q 17.96875 56 27.875 56 
Q 33.9375 56 38.25 53.625 
Q 42.578125 51.265625 45.40625 46.390625 
z
M 14.796875 27.296875 
Q 14.796875 17.390625 18.875 11.75 
Q 22.953125 6.109375 30.078125 6.109375 
Q 37.203125 6.109375 41.296875 11.75 
Q 45.40625 17.390625 45.40625 27.296875 
Q 45.40625 37.203125 41.296875 42.84375 
Q 37.203125 48.484375 30.078125 48.484375 
Q 22.953125 48.484375 18.875 42.84375 
Q 14.796875 37.203125 14.796875 27.296875 
z
" id="DejaVuSans-100"/>
       <path d="M 2.984375 54.6875 
L 12.5 54.6875 
L 29.59375 8.796875 
L 46.6875 54.6875 
L 56.203125 54.6875 
L 35.6875 0 
L 23.484375 0 
z
" id="DejaVuSans-118"/>
      </defs>
      <use xlink:href="#DejaVuSans-65"/>
      <use x="66.658203" xlink:href="#DejaVuSans-100"/>
      <use x="130.134766" xlink:href="#DejaVuSans-118"/>
      <use x="189.314453" xlink:href="#DejaVuSans-32"/>
      <use x="221.101562" xlink:href="#DejaVuSans-83"/>
      <use x="284.578125" xlink:href="#DejaVuSans-117"/>
      <use x="347.957031" xlink:href="#DejaVuSans-98"/>
      <use x="411.433594" xlink:href="#DejaVuSans-115"/>
      <use x="463.533203" xlink:href="#DejaVuSans-112"/>
      <use x="527.009766" xlink:href="#DejaVuSans-97"/>
      <use x="588.289062" xlink:href="#DejaVuSans-99"/>
      <use x="643.269531" xlink:href="#DejaVuSans-101"/>
      <use x="704.792969" xlink:href="#DejaVuSans-32"/>
      <use x="736.580078" xlink:href="#DejaVuSans-68"/>
      <use x="813.582031" xlink:href="#DejaVuSans-105"/>
      <use x="841.365234" xlink:href="#DejaVuSans-109"/>
     </g>
    </g>
   </g>
   <g id="LineCollection_1"/>
   <g id="LineCollection_2">
    <path clip-path="url(#p0dd2865c1c)" d="M 90 474.685714 
L 93.542857 479 
L 97.085714 483.314286 
L 100.628571 487.628571 
L 104.171429 491.942857 
L 107.714286 496.257143 
L 111.257143 500.571429 
L 114.8 504.885714 
L 118.342857 509.2 
L 121.885714 513.514286 
L 125.428571 517.828571 
L 128.971429 522.142857 
L 132.514286 526.457143 
L 136.057143 530.771429 
L 138.032598 533.177023 
" style="fill:none;stroke:#000000;stroke-width:1.5;"/>
    <path clip-path="url(#p0dd2865c1c)" d="M 169.510259 571.508691 
L 171.485714 573.914286 
L 175.028571 578.228571 
L 178.571429 582.542857 
L 182.114286 586.857143 
L 185.657143 591.171429 
L 189.2 595.485714 
L 192.742857 599.8 
L 196.285714 604.114286 
L 199.828571 608.428571 
L 203.371429 612.742857 
L 206.914286 617.057143 
L 210.457143 621.371429 
L 214 625.685714 
L 217.542857 630 
" style="fill:none;stroke:#000000;stroke-width:1.5;"/>
   </g>
   <g id="LineCollection_3">
    <path clip-path="url(#p0dd2865c1c)" d="M 90 302.114286 
L 93.542857 306.428571 
L 97.085714 310.742857 
L 100.628571 315.057143 
L 104.171429 319.371429 
L 107.714286 323.685714 
L 111.257143 328 
L 114.8 332.314286 
L 118.342857 336.628571 
L 121.885714 340.942857 
L 125.428571 345.257143 
L 128.971429 349.571429 
L 132.514286 353.885714 
L 136.057143 358.2 
L 139.6 362.514286 
L 143.142857 366.828571 
L 146.685714 371.142857 
L 150.228571 375.457143 
L 153.771429 379.771429 
L 157.314286 384.085714 
L 160.857143 388.4 
L 164.4 392.714286 
L 167.942857 397.028571 
L 171.485714 401.342857 
L 175.028571 405.657143 
L 178.571429 409.971429 
L 182.114286 414.285714 
L 185.657143 418.6 
L 189.2 422.914286 
L 192.742857 427.228571 
L 196.285714 431.542857 
L 199.828571 435.857143 
L 203.371429 440.171429 
L 206.914286 444.485714 
L 210.457143 448.8 
L 214 453.114286 
L 217.542857 457.428571 
L 221.085714 461.742857 
L 224.628571 466.057143 
L 228.171429 470.371429 
L 231.714286 474.685714 
L 235.257143 479 
L 238.8 483.314286 
L 242.342857 487.628571 
L 245.885714 491.942857 
L 249.428571 496.257143 
L 252.971429 500.571429 
L 256.514286 504.885714 
L 260.057143 509.2 
L 263.6 513.514286 
L 267.142857 517.828571 
L 270.685714 522.142857 
L 274.228571 526.457143 
L 277.771429 530.771429 
L 279.746883 533.177023 
" style="fill:none;stroke:#000000;stroke-width:1.5;"/>
    <path clip-path="url(#p0dd2865c1c)" d="M 311.224545 571.508691 
L 313.2 573.914286 
L 316.742857 578.228571 
L 320.285714 582.542857 
L 323.828571 586.857143 
L 327.371429 591.171429 
L 330.914286 595.485714 
L 334.457143 599.8 
L 338 604.114286 
L 341.542857 608.428571 
L 345.085714 612.742857 
L 348.628571 617.057143 
L 352.171429 621.371429 
L 355.714286 625.685714 
L 359.257143 630 
" style="fill:none;stroke:#000000;stroke-width:1.5;"/>
   </g>
   <g id="LineCollection_4">
    <path clip-path="url(#p0dd2865c1c)" d="M 90 129.542857 
L 93.542857 133.857143 
L 97.085714 138.171429 
L 100.628571 142.485714 
L 104.171429 146.8 
L 107.714286 151.114286 
L 111.257143 155.428571 
L 114.8 159.742857 
L 118.342857 164.057143 
L 121.885714 168.371429 
L 125.428571 172.685714 
L 128.971429 177 
L 132.514286 181.314286 
L 136.057143 185.628571 
L 139.6 189.942857 
L 143.142857 194.257143 
L 146.685714 198.571429 
L 150.228571 202.885714 
L 153.771429 207.2 
L 157.314286 211.514286 
L 160.857143 215.828571 
L 164.4 220.142857 
L 167.942857 224.457143 
L 171.485714 228.771429 
L 175.028571 233.085714 
L 178.571429 237.4 
L 182.114286 241.714286 
L 185.657143 246.028571 
L 189.2 250.342857 
L 192.742857 254.657143 
L 196.285714 258.971429 
L 199.828571 263.285714 
L 203.371429 267.6 
L 206.914286 271.914286 
L 210.457143 276.228571 
L 214 280.542857 
L 217.542857 284.857143 
L 221.085714 289.171429 
L 224.628571 293.485714 
L 228.171429 297.8 
L 231.714286 302.114286 
L 235.257143 306.428571 
L 238.8 310.742857 
L 242.342857 315.057143 
L 245.885714 319.371429 
L 249.428571 323.685714 
L 252.971429 328 
L 256.514286 332.314286 
L 260.057143 336.628571 
L 263.6 340.942857 
L 267.142857 345.257143 
L 270.685714 349.571429 
L 274.228571 353.885714 
L 277.771429 358.2 
L 281.314286 362.514286 
L 284.857143 366.828571 
L 288.4 371.142857 
L 291.942857 375.457143 
L 295.485714 379.771429 
L 299.028571 384.085714 
L 302.571429 388.4 
L 306.114286 392.714286 
L 309.657143 397.028571 
L 313.2 401.342857 
L 316.624032 405.512445 
" style="fill:none;stroke:#000000;stroke-width:1.5;"/>
    <path clip-path="url(#p0dd2865c1c)" d="M 352.290254 448.944698 
L 355.714286 453.114286 
L 359.257143 457.428571 
L 362.8 461.742857 
L 366.342857 466.057143 
L 369.885714 470.371429 
L 373.428571 474.685714 
L 376.971429 479 
L 380.514286 483.314286 
L 384.057143 487.628571 
L 387.6 491.942857 
L 391.142857 496.257143 
L 394.685714 500.571429 
L 398.228571 504.885714 
L 401.771429 509.2 
L 405.314286 513.514286 
L 408.857143 517.828571 
L 412.4 522.142857 
L 415.942857 526.457143 
L 419.485714 530.771429 
L 423.028571 535.085714 
L 426.571429 539.4 
L 430.114286 543.714286 
L 433.657143 548.028571 
L 437.2 552.342857 
L 440.742857 556.657143 
L 444.285714 560.971429 
L 447.828571 565.285714 
L 451.371429 569.6 
L 454.914286 573.914286 
L 458.457143 578.228571 
L 462 582.542857 
L 465.542857 586.857143 
L 469.085714 591.171429 
L 472.628571 595.485714 
L 476.171429 599.8 
L 479.714286 604.114286 
L 483.257143 608.428571 
L 486.8 612.742857 
L 490.342857 617.057143 
L 493.885714 621.371429 
L 497.428571 625.685714 
L 500.971429 630 
" style="fill:none;stroke:#000000;stroke-width:1.5;"/>
   </g>
   <g id="LineCollection_5">
    <path clip-path="url(#p0dd2865c1c)" d="M 199.828571 90.714286 
L 203.371429 95.028571 
L 206.914286 99.342857 
L 210.457143 103.657143 
L 214 107.971429 
L 217.542857 112.285714 
L 221.085714 116.6 
L 224.628571 120.914286 
L 228.171429 125.228571 
L 231.714286 129.542857 
L 235.257143 133.857143 
L 238.8 138.171429 
L 242.342857 142.485714 
L 245.885714 146.8 
L 249.428571 151.114286 
L 252.971429 155.428571 
L 256.514286 159.742857 
L 260.057143 164.057143 
L 263.6 168.371429 
L 267.142857 172.685714 
L 270.685714 177 
L 274.228571 181.314286 
L 277.771429 185.628571 
L 281.314286 189.942857 
L 284.857143 194.257143 
L 288.4 198.571429 
L 291.942857 202.885714 
L 295.485714 207.2 
L 299.028571 211.514286 
L 302.571429 215.828571 
L 306.114286 220.142857 
L 309.657143 224.457143 
L 313.2 228.771429 
L 316.742857 233.085714 
L 320.285714 237.4 
L 323.828571 241.714286 
L 327.371429 246.028571 
L 330.914286 250.342857 
L 334.457143 254.657143 
L 338 258.971429 
L 341.542857 263.285714 
L 345.085714 267.6 
L 348.628571 271.914286 
L 352.171429 276.228571 
L 355.714286 280.542857 
L 359.257143 284.857143 
L 362.8 289.171429 
L 366.342857 293.485714 
L 369.885714 297.8 
L 373.428571 302.114286 
L 376.971429 306.428571 
L 380.514286 310.742857 
L 384.057143 315.057143 
L 387.6 319.371429 
L 391.142857 323.685714 
L 394.685714 328 
L 398.228571 332.314286 
L 401.771429 336.628571 
L 405.314286 340.942857 
L 408.857143 345.257143 
L 412.4 349.571429 
L 415.942857 353.885714 
L 419.485714 358.2 
L 423.028571 362.514286 
L 426.452604 366.683873 
" style="fill:none;stroke:#000000;stroke-width:1.5;"/>
    <path clip-path="url(#p0dd2865c1c)" d="M 462.118825 410.116127 
L 465.542857 414.285714 
L 469.085714 418.6 
L 472.628571 422.914286 
L 476.171429 427.228571 
L 479.714286 431.542857 
L 483.257143 435.857143 
L 486.8 440.171429 
L 490.342857 444.485714 
L 493.885714 448.8 
L 497.428571 453.114286 
L 500.971429 457.428571 
L 504.514286 461.742857 
L 508.057143 466.057143 
L 511.6 470.371429 
L 515.142857 474.685714 
L 518.685714 479 
L 522.228571 483.314286 
L 525.771429 487.628571 
L 529.314286 491.942857 
L 532.857143 496.257143 
" style="fill:none;stroke:#000000;stroke-width:1.5;"/>
   </g>
   <g id="LineCollection_6">
    <path clip-path="url(#p0dd2865c1c)" d="M 341.542857 90.714286 
L 345.085714 95.028571 
L 348.628571 99.342857 
L 352.171429 103.657143 
L 355.714286 107.971429 
L 359.257143 112.285714 
L 362.8 116.6 
L 366.342857 120.914286 
L 369.885714 125.228571 
L 373.428571 129.542857 
L 376.971429 133.857143 
L 380.514286 138.171429 
L 384.057143 142.485714 
L 387.6 146.8 
L 391.142857 151.114286 
L 394.685714 155.428571 
L 398.228571 159.742857 
L 401.771429 164.057143 
L 405.195461 168.22673 
" style="fill:none;stroke:#000000;stroke-width:1.5;"/>
    <path clip-path="url(#p0dd2865c1c)" d="M 440.861682 211.658984 
L 444.285714 215.828571 
L 447.828571 220.142857 
L 451.371429 224.457143 
L 454.914286 228.771429 
L 458.457143 233.085714 
L 462 237.4 
L 465.542857 241.714286 
L 469.085714 246.028571 
L 472.628571 250.342857 
L 476.171429 254.657143 
L 479.714286 258.971429 
L 483.257143 263.285714 
L 486.8 267.6 
L 490.342857 271.914286 
L 493.885714 276.228571 
L 497.428571 280.542857 
L 500.971429 284.857143 
L 504.514286 289.171429 
L 508.057143 293.485714 
L 511.6 297.8 
L 515.142857 302.114286 
L 518.685714 306.428571 
L 522.228571 310.742857 
L 525.771429 315.057143 
L 529.314286 319.371429 
L 532.857143 323.685714 
" style="fill:none;stroke:#000000;stroke-width:1.5;"/>
   </g>
   <g id="LineCollection_7">
    <path clip-path="url(#p0dd2865c1c)" d="M 483.257143 90.714286 
L 486.8 95.028571 
L 490.224032 99.198159 
" style="fill:none;stroke:#000000;stroke-width:1.5;"/>
    <path clip-path="url(#p0dd2865c1c)" d="M 525.890254 142.630412 
L 529.314286 146.8 
L 532.857143 151.114286 
" style="fill:none;stroke:#000000;stroke-width:1.5;"/>
   </g>
   <g id="LineCollection_8"/>
   <g id="patch_3">
    <path d="M 90 630 
L 90 86.4 
" style="fill:none;stroke:#000000;stroke-linecap:square;stroke-linejoin:miter;stroke-width:0.8;"/>
   </g>
   <g id="patch_4">
    <path d="M 536.4 630 
L 536.4 86.4 
" style="fill:none;stroke:#000000;stroke-linecap:square;stroke-linejoin:miter;stroke-width:0.8;"/>
   </g>
   <g id="patch_5">
    <path d="M 90 630 
L 536.4 630 
" style="fill:none;stroke:#000000;stroke-linecap:square;stroke-linejoin:miter;stroke-width:0.8;"/>
   </g>
   <g id="patch_6">
    <path d="M 90 86.4 
L 536.4 86.4 
" style="fill:none;stroke:#000000;stroke-linecap:square;stroke-linejoin:miter;stroke-width:0.8;"/>
   </g>
   <g id="text_13">
    <g clip-path="url(#p0dd2865c1c)">
     <!-- 40.000 -->
     <g transform="translate(139.21233 539.396437)rotate(-309.392568)scale(0.11 -0.11)">
      <defs>
       <path d="M 37.796875 64.3125 
L 12.890625 25.390625 
L 37.796875 25.390625 
z
M 35.203125 72.90625 
L 47.609375 72.90625 
L 47.609375 25.390625 
L 58.015625 25.390625 
L 58.015625 17.1875 
L 47.609375 17.1875 
L 47.609375 0 
L 37.796875 0 
L 37.796875 17.1875 
L 4.890625 17.1875 
L 4.890625 26.703125 
z
" id="DejaVuSans-52"/>
       <path d="M 10.6875 12.40625 
L 21 12.40625 
L 21 0 
L 10.6875 0 
z
" id="DejaVuSans-46"/>
      </defs>
      <use xlink:href="#DejaVuSans-52"/>
      <use x="63.623047" xlink:href="#DejaVuSans-48"/>
      <use x="127.246094" xlink:href="#DejaVuSans-46"/>
      <use x="159.033203" xlink:href="#DejaVuSans-48"/>
      <use x="222.65625" xlink:href="#DejaVuSans-48"/>
      <use x="286.279297" xlink:href="#DejaVuSans-48"/>
     </g>
    </g>
   </g>
   <g id="text_14">
    <g clip-path="url(#p0dd2865c1c)">
     <!-- 80.000 -->
     <g transform="translate(280.926616 539.396437)rotate(-309.392568)scale(0.11 -0.11)">
      <defs>
       <path d="M 31.78125 34.625 
Q 24.75 34.625 20.71875 30.859375 
Q 16.703125 27.09375 16.703125 20.515625 
Q 16.703125 13.921875 20.71875 10.15625 
Q 24.75 6.390625 31.78125 6.390625 
Q 38.8125 6.390625 42.859375 10.171875 
Q 46.921875 13.96875 46.921875 20.515625 
Q 46.921875 27.09375 42.890625 30.859375 
Q 38.875 34.625 31.78125 34.625 
z
M 21.921875 38.8125 
Q 15.578125 40.375 12.03125 44.71875 
Q 8.5 49.078125 8.5 55.328125 
Q 8.5 64.0625 14.71875 69.140625 
Q 20.953125 74.21875 31.78125 74.21875 
Q 42.671875 74.21875 48.875 69.140625 
Q 55.078125 64.0625 55.078125 55.328125 
Q 55.078125 49.078125 51.53125 44.71875 
Q 48 40.375 41.703125 38.8125 
Q 48.828125 37.15625 52.796875 32.3125 
Q 56.78125 27.484375 56.78125 20.515625 
Q 56.78125 9.90625 50.3125 4.234375 
Q 43.84375 -1.421875 31.78125 -1.421875 
Q 19.734375 -1.421875 13.25 4.234375 
Q 6.78125 9.90625 6.78125 20.515625 
Q 6.78125 27.484375 10.78125 32.3125 
Q 14.796875 37.15625 21.921875 38.8125 
z
M 18.3125 54.390625 
Q 18.3125 48.734375 21.84375 45.5625 
Q 25.390625 42.390625 31.78125 42.390625 
Q 38.140625 42.390625 41.71875 45.5625 
Q 45.3125 48.734375 45.3125 54.390625 
Q 45.3125 60.0625 41.71875 63.234375 
Q 38.140625 66.40625 31.78125 66.40625 
Q 25.390625 66.40625 21.84375 63.234375 
Q 18.3125 60.0625 18.3125 54.390625 
z
" id="DejaVuSans-56"/>
      </defs>
      <use xlink:href="#DejaVuSans-56"/>
      <use x="63.623047" xlink:href="#DejaVuSans-48"/>
      <use x="127.246094" xlink:href="#DejaVuSans-46"/>
      <use x="159.033203" xlink:href="#DejaVuSans-48"/>
      <use x="222.65625" xlink:href="#DejaVuSans-48"/>
      <use x="286.279297" xlink:href="#DejaVuSans-48"/>
     </g>
    </g>
   </g>
   <g id="text_15">
    <g clip-path="url(#p0dd2865c1c)">
     <!-- 120.000 -->
     <g transform="translate(317.677235 411.577779)rotate(-309.392568)scale(0.11 -0.11)">
      <use xlink:href="#DejaVuSans-49"/>
      <use x="63.623047" xlink:href="#DejaVuSans-50"/>
      <use x="127.246094" xlink:href="#DejaVuSans-48"/>
      <use x="190.869141" xlink:href="#DejaVuSans-46"/>
      <use x="222.65625" xlink:href="#DejaVuSans-48"/>
      <use x="286.279297" xlink:href="#DejaVuSans-48"/>
      <use x="349.902344" xlink:href="#DejaVuSans-48"/>
     </g>
    </g>
   </g>
   <g id="text_16">
    <g clip-path="url(#p0dd2865c1c)">
     <!-- 160.000 -->
     <g transform="translate(427.505807 372.749207)rotate(-309.392568)scale(0.11 -0.11)">
      <defs>
       <path d="M 33.015625 40.375 
Q 26.375 40.375 22.484375 35.828125 
Q 18.609375 31.296875 18.609375 23.390625 
Q 18.609375 15.53125 22.484375 10.953125 
Q 26.375 6.390625 33.015625 6.390625 
Q 39.65625 6.390625 43.53125 10.953125 
Q 47.40625 15.53125 47.40625 23.390625 
Q 47.40625 31.296875 43.53125 35.828125 
Q 39.65625 40.375 33.015625 40.375 
z
M 52.59375 71.296875 
L 52.59375 62.3125 
Q 48.875 64.0625 45.09375 64.984375 
Q 41.3125 65.921875 37.59375 65.921875 
Q 27.828125 65.921875 22.671875 59.328125 
Q 17.53125 52.734375 16.796875 39.40625 
Q 19.671875 43.65625 24.015625 45.921875 
Q 28.375 48.1875 33.59375 48.1875 
Q 44.578125 48.1875 50.953125 41.515625 
Q 57.328125 34.859375 57.328125 23.390625 
Q 57.328125 12.15625 50.6875 5.359375 
Q 44.046875 -1.421875 33.015625 -1.421875 
Q 20.359375 -1.421875 13.671875 8.265625 
Q 6.984375 17.96875 6.984375 36.375 
Q 6.984375 53.65625 15.1875 63.9375 
Q 23.390625 74.21875 37.203125 74.21875 
Q 40.921875 74.21875 44.703125 73.484375 
Q 48.484375 72.75 52.59375 71.296875 
z
" id="DejaVuSans-54"/>
      </defs>
      <use xlink:href="#DejaVuSans-49"/>
      <use x="63.623047" xlink:href="#DejaVuSans-54"/>
      <use x="127.246094" xlink:href="#DejaVuSans-48"/>
      <use x="190.869141" xlink:href="#DejaVuSans-46"/>
      <use x="222.65625" xlink:href="#DejaVuSans-48"/>
      <use x="286.279297" xlink:href="#DejaVuSans-48"/>
      <use x="349.902344" xlink:href="#DejaVuSans-48"/>
     </g>
    </g>
   </g>
   <g id="text_17">
    <g clip-path="url(#p0dd2865c1c)">
     <!-- 200.000 -->
     <g transform="translate(406.248664 174.292064)rotate(-309.392568)scale(0.11 -0.11)">
      <use xlink:href="#DejaVuSans-50"/>
      <use x="63.623047" xlink:href="#DejaVuSans-48"/>
      <use x="127.246094" xlink:href="#DejaVuSans-48"/>
      <use x="190.869141" xlink:href="#DejaVuSans-46"/>
      <use x="222.65625" xlink:href="#DejaVuSans-48"/>
      <use x="286.279297" xlink:href="#DejaVuSans-48"/>
      <use x="349.902344" xlink:href="#DejaVuSans-48"/>
     </g>
    </g>
   </g>
   <g id="text_18">
    <g clip-path="url(#p0dd2865c1c)">
     <!-- 240.000 -->
     <g transform="translate(491.277235 105.263493)rotate(-309.392568)scale(0.11 -0.11)">
      <use xlink:href="#DejaVuSans-50"/>
      <use x="63.623047" xlink:href="#DejaVuSans-52"/>
      <use x="127.246094" xlink:href="#DejaVuSans-48"/>
      <use x="190.869141" xlink:href="#DejaVuSans-46"/>
      <use x="222.65625" xlink:href="#DejaVuSans-48"/>
      <use x="286.279297" xlink:href="#DejaVuSans-48"/>
      <use x="349.902344" xlink:href="#DejaVuSans-48"/>
     </g>
    </g>
   </g>
  </g>
  <g id="axes_2">
   <g id="patch_7">
    <path clip-path="url(#p64b25c1c7a)" d="M 564.3 630 
L 564.3 552.342857 
L 564.3 164.057143 
L 564.3 86.4 
L 591.48 86.4 
L 591.48 164.057143 
L 591.48 552.342857 
L 591.48 630 
z
" style="fill:#ffffff;stroke:#ffffff;stroke-linejoin:miter;stroke-width:0.01;"/>
   </g>
   <g id="QuadMesh_1">
    <path clip-path="url(#p64b25c1c7a)" d="M 564.3 630 
L 591.48 630 
L 591.48 552.342857 
L 564.3 552.342857 
L 564.3 630 
" style="fill:#481b6d;"/>
    <path clip-path="url(#p64b25c1c7a)" d="M 564.3 552.342857 
L 591.48 552.342857 
L 591.48 474.685714 
L 564.3 474.685714 
L 564.3 552.342857 
" style="fill:#3f4788;"/>
    <path clip-path="url(#p64b25c1c7a)" d="M 564.3 474.685714 
L 591.48 474.685714 
L 591.48 397.028571 
L 564.3 397.028571 
L 564.3 474.685714 
" style="fill:#2e6e8e;"/>
    <path clip-path="url(#p64b25c1c7a)" d="M 564.3 397.028571 
L 591.48 397.028571 
L 591.48 319.371429 
L 564.3 319.371429 
L 564.3 397.028571 
" style="fill:#21908d;"/>
    <path clip-path="url(#p64b25c1c7a)" d="M 564.3 319.371429 
L 591.48 319.371429 
L 591.48 241.714286 
L 564.3 241.714286 
L 564.3 319.371429 
" style="fill:#2db27d;"/>
    <path clip-path="url(#p64b25c1c7a)" d="M 564.3 241.714286 
L 591.48 241.714286 
L 591.48 164.057143 
L 564.3 164.057143 
L 564.3 241.714286 
" style="fill:#73d056;"/>
    <path clip-path="url(#p64b25c1c7a)" d="M 564.3 164.057143 
L 591.48 164.057143 
L 591.48 86.4 
L 564.3 86.4 
L 564.3 164.057143 
" style="fill:#d0e11c;"/>
   </g>
   <g id="matplotlib.axis_3"/>
   <g id="matplotlib.axis_4">
    <g id="ytick_6">
     <g id="line2d_11">
      <defs>
       <path d="M 0 0 
L 3.5 0 
" id="m732daf34f7" style="stroke:#000000;stroke-width:0.8;"/>
      </defs>
      <g>
       <use style="stroke:#000000;stroke-width:0.8;" x="591.48" xlink:href="#m732daf34f7" y="630"/>
      </g>
     </g>
     <g id="text_19">
      <!-- 0.48 -->
      <g transform="translate(598.48 638.358281)scale(0.22 -0.22)">
       <use xlink:href="#DejaVuSans-48"/>
       <use x="63.623047" xlink:href="#DejaVuSans-46"/>
       <use x="95.410156" xlink:href="#DejaVuSans-52"/>
       <use x="159.033203" xlink:href="#DejaVuSans-56"/>
      </g>
     </g>
    </g>
    <g id="ytick_7">
     <g id="line2d_12">
      <g>
       <use style="stroke:#000000;stroke-width:0.8;" x="591.48" xlink:href="#m732daf34f7" y="474.685714"/>
      </g>
     </g>
     <g id="text_20">
      <!-- 0.53 -->
      <g transform="translate(598.48 483.043996)scale(0.22 -0.22)">
       <defs>
        <path d="M 40.578125 39.3125 
Q 47.65625 37.796875 51.625 33 
Q 55.609375 28.21875 55.609375 21.1875 
Q 55.609375 10.40625 48.1875 4.484375 
Q 40.765625 -1.421875 27.09375 -1.421875 
Q 22.515625 -1.421875 17.65625 -0.515625 
Q 12.796875 0.390625 7.625 2.203125 
L 7.625 11.71875 
Q 11.71875 9.328125 16.59375 8.109375 
Q 21.484375 6.890625 26.8125 6.890625 
Q 36.078125 6.890625 40.9375 10.546875 
Q 45.796875 14.203125 45.796875 21.1875 
Q 45.796875 27.640625 41.28125 31.265625 
Q 36.765625 34.90625 28.71875 34.90625 
L 20.21875 34.90625 
L 20.21875 43.015625 
L 29.109375 43.015625 
Q 36.375 43.015625 40.234375 45.921875 
Q 44.09375 48.828125 44.09375 54.296875 
Q 44.09375 59.90625 40.109375 62.90625 
Q 36.140625 65.921875 28.71875 65.921875 
Q 24.65625 65.921875 20.015625 65.03125 
Q 15.375 64.15625 9.8125 62.3125 
L 9.8125 71.09375 
Q 15.4375 72.65625 20.34375 73.4375 
Q 25.25 74.21875 29.59375 74.21875 
Q 40.828125 74.21875 47.359375 69.109375 
Q 53.90625 64.015625 53.90625 55.328125 
Q 53.90625 49.265625 50.4375 45.09375 
Q 46.96875 40.921875 40.578125 39.3125 
z
" id="DejaVuSans-51"/>
       </defs>
       <use xlink:href="#DejaVuSans-48"/>
       <use x="63.623047" xlink:href="#DejaVuSans-46"/>
       <use x="95.410156" xlink:href="#DejaVuSans-53"/>
       <use x="159.033203" xlink:href="#DejaVuSans-51"/>
      </g>
     </g>
    </g>
    <g id="ytick_8">
     <g id="line2d_13">
      <g>
       <use style="stroke:#000000;stroke-width:0.8;" x="591.48" xlink:href="#m732daf34f7" y="319.371429"/>
      </g>
     </g>
     <g id="text_21">
      <!-- 0.58 -->
      <g transform="translate(598.48 327.72971)scale(0.22 -0.22)">
       <use xlink:href="#DejaVuSans-48"/>
       <use x="63.623047" xlink:href="#DejaVuSans-46"/>
       <use x="95.410156" xlink:href="#DejaVuSans-53"/>
       <use x="159.033203" xlink:href="#DejaVuSans-56"/>
      </g>
     </g>
    </g>
    <g id="ytick_9">
     <g id="line2d_14">
      <g>
       <use style="stroke:#000000;stroke-width:0.8;" x="591.48" xlink:href="#m732daf34f7" y="164.057143"/>
      </g>
     </g>
     <g id="text_22">
      <!-- 0.62 -->
      <g transform="translate(598.48 172.415424)scale(0.22 -0.22)">
       <use xlink:href="#DejaVuSans-48"/>
       <use x="63.623047" xlink:href="#DejaVuSans-46"/>
       <use x="95.410156" xlink:href="#DejaVuSans-54"/>
       <use x="159.033203" xlink:href="#DejaVuSans-50"/>
      </g>
     </g>
    </g>
    <g id="text_23">
     <!-- AUC Score -->
     <g transform="translate(676.539219 444.53625)rotate(-90)scale(0.33 -0.33)">
      <defs>
       <path d="M 8.6875 72.90625 
L 18.609375 72.90625 
L 18.609375 28.609375 
Q 18.609375 16.890625 22.84375 11.734375 
Q 27.09375 6.59375 36.625 6.59375 
Q 46.09375 6.59375 50.34375 11.734375 
Q 54.59375 16.890625 54.59375 28.609375 
L 54.59375 72.90625 
L 64.5 72.90625 
L 64.5 27.390625 
Q 64.5 13.140625 57.4375 5.859375 
Q 50.390625 -1.421875 36.625 -1.421875 
Q 22.796875 -1.421875 15.734375 5.859375 
Q 8.6875 13.140625 8.6875 27.390625 
z
" id="DejaVuSans-85"/>
       <path d="M 64.40625 67.28125 
L 64.40625 56.890625 
Q 59.421875 61.53125 53.78125 63.8125 
Q 48.140625 66.109375 41.796875 66.109375 
Q 29.296875 66.109375 22.65625 58.46875 
Q 16.015625 50.828125 16.015625 36.375 
Q 16.015625 21.96875 22.65625 14.328125 
Q 29.296875 6.6875 41.796875 6.6875 
Q 48.140625 6.6875 53.78125 8.984375 
Q 59.421875 11.28125 64.40625 15.921875 
L 64.40625 5.609375 
Q 59.234375 2.09375 53.4375 0.328125 
Q 47.65625 -1.421875 41.21875 -1.421875 
Q 24.65625 -1.421875 15.125 8.703125 
Q 5.609375 18.84375 5.609375 36.375 
Q 5.609375 53.953125 15.125 64.078125 
Q 24.65625 74.21875 41.21875 74.21875 
Q 47.75 74.21875 53.53125 72.484375 
Q 59.328125 70.75 64.40625 67.28125 
z
" id="DejaVuSans-67"/>
       <path d="M 30.609375 48.390625 
Q 23.390625 48.390625 19.1875 42.75 
Q 14.984375 37.109375 14.984375 27.296875 
Q 14.984375 17.484375 19.15625 11.84375 
Q 23.34375 6.203125 30.609375 6.203125 
Q 37.796875 6.203125 41.984375 11.859375 
Q 46.1875 17.53125 46.1875 27.296875 
Q 46.1875 37.015625 41.984375 42.703125 
Q 37.796875 48.390625 30.609375 48.390625 
z
M 30.609375 56 
Q 42.328125 56 49.015625 48.375 
Q 55.71875 40.765625 55.71875 27.296875 
Q 55.71875 13.875 49.015625 6.21875 
Q 42.328125 -1.421875 30.609375 -1.421875 
Q 18.84375 -1.421875 12.171875 6.21875 
Q 5.515625 13.875 5.515625 27.296875 
Q 5.515625 40.765625 12.171875 48.375 
Q 18.84375 56 30.609375 56 
z
" id="DejaVuSans-111"/>
       <path d="M 41.109375 46.296875 
Q 39.59375 47.171875 37.8125 47.578125 
Q 36.03125 48 33.890625 48 
Q 26.265625 48 22.1875 43.046875 
Q 18.109375 38.09375 18.109375 28.8125 
L 18.109375 0 
L 9.078125 0 
L 9.078125 54.6875 
L 18.109375 54.6875 
L 18.109375 46.1875 
Q 20.953125 51.171875 25.484375 53.578125 
Q 30.03125 56 36.53125 56 
Q 37.453125 56 38.578125 55.875 
Q 39.703125 55.765625 41.0625 55.515625 
z
" id="DejaVuSans-114"/>
      </defs>
      <use xlink:href="#DejaVuSans-65"/>
      <use x="68.408203" xlink:href="#DejaVuSans-85"/>
      <use x="141.601562" xlink:href="#DejaVuSans-67"/>
      <use x="211.425781" xlink:href="#DejaVuSans-32"/>
      <use x="243.212891" xlink:href="#DejaVuSans-83"/>
      <use x="306.689453" xlink:href="#DejaVuSans-99"/>
      <use x="361.669922" xlink:href="#DejaVuSans-111"/>
      <use x="422.851562" xlink:href="#DejaVuSans-114"/>
      <use x="461.714844" xlink:href="#DejaVuSans-101"/>
     </g>
    </g>
   </g>
   <g id="patch_8">
    <path d="M 564.3 630 
L 564.3 552.342857 
L 564.3 164.057143 
L 564.3 86.4 
L 591.48 86.4 
L 591.48 164.057143 
L 591.48 552.342857 
L 591.48 630 
z
" style="fill:none;stroke:#000000;stroke-linejoin:miter;stroke-width:0.8;"/>
   </g>
  </g>
 </g>
 <defs>
  <clipPath id="p0dd2865c1c">
   <rect height="543.6" width="446.4" x="90" y="86.4"/>
  </clipPath>
  <clipPath id="p64b25c1c7a">
   <rect height="543.6" width="27.18" x="564.3" y="86.4"/>
  </clipPath>
 </defs>
</svg>
