<?xml version="1.0" encoding="utf-8" standalone="no"?>
<!DOCTYPE svg PUBLIC "-//W3C//DTD SVG 1.1//EN"
  "http://www.w3.org/Graphics/SVG/1.1/DTD/svg11.dtd">
<!-- Created with matplotlib (https://matplotlib.org/) -->
<svg height="720pt" version="1.1" viewBox="0 0 720 720" width="720pt" xmlns="http://www.w3.org/2000/svg" xmlns:xlink="http://www.w3.org/1999/xlink">
 <metadata>
  <rdf:RDF xmlns:cc="http://creativecommons.org/ns#" xmlns:dc="http://purl.org/dc/elements/1.1/" xmlns:rdf="http://www.w3.org/1999/02/22-rdf-syntax-ns#">
   <cc:Work>
    <dc:type rdf:resource="http://purl.org/dc/dcmitype/StillImage"/>
    <dc:date>2021-08-05T17:04:41.964028</dc:date>
    <dc:format>image/svg+xml</dc:format>
    <dc:creator>
     <cc:Agent>
      <dc:title>Matplotlib v3.3.4, https://matplotlib.org/</dc:title>
     </cc:Agent>
    </dc:creator>
   </cc:Work>
  </rdf:RDF>
 </metadata>
 <defs>
  <style type="text/css">*{stroke-linecap:butt;stroke-linejoin:round;}</style>
 </defs>
 <g id="figure_1">
  <g id="patch_1">
   <path d="M 0 720 
L 720 720 
L 720 0 
L 0 0 
z
" style="fill:none;"/>
  </g>
  <g id="axes_1">
   <g id="patch_2">
    <path d="M 90 630 
L 536.4 630 
L 536.4 86.4 
L 90 86.4 
z
" style="fill:#ffffff;"/>
   </g>
   <g id="PathCollection_1">
    <path clip-path="url(#p03993c3fb9)" d="M 185.657143 166.563506 
L 217.542857 165.426285 
L 281.314286 199.520095 
L 345.085714 197.705609 
L 408.857143 181.815543 
L 435.832137 164.057143 
L 472.628571 136.971238 
L 536.4 89.174129 
L 536.4 86.4 
L 472.628571 86.4 
L 408.857143 86.4 
L 345.085714 86.4 
L 281.314286 86.4 
L 217.542857 86.4 
L 185.657143 86.4 
L 153.771429 86.4 
L 128.262857 86.4 
L 115.508571 86.4 
L 114.074014 86.4 
L 115.508571 92.239916 
L 128.262857 92.903513 
L 153.771429 92.90949 
L 184.634453 164.057143 
z
" style="fill:#48186a;"/>
   </g>
   <g id="PathCollection_2">
    <path clip-path="url(#p03993c3fb9)" d="M 115.508571 622.234286 
L 128.262857 622.234286 
L 153.771429 622.234286 
L 185.657143 622.234286 
L 201.685711 622.234286 
L 185.657143 621.238861 
L 153.771429 617.739432 
L 128.262857 612.173549 
L 115.508571 607.390044 
L 105.07875 598.937143 
L 96.377143 591.33997 
L 96.377143 598.937143 
L 96.377143 622.234286 
z
" style="fill:#424086;"/>
    <path clip-path="url(#p03993c3fb9)" d="M 408.857143 401.43234 
L 472.628571 424.868782 
L 536.4 433.324248 
L 536.4 397.028571 
L 536.4 319.371429 
L 536.4 241.714286 
L 536.4 164.057143 
L 536.4 89.174129 
L 472.628571 136.971238 
L 435.832137 164.057143 
L 408.857143 181.815543 
L 345.085714 197.705609 
L 281.314286 199.520095 
L 217.542857 165.426285 
L 185.657143 166.563506 
L 184.634453 164.057143 
L 153.771429 92.90949 
L 128.262857 92.903513 
L 115.508571 92.239916 
L 114.074014 86.4 
L 111.351419 86.4 
L 115.508571 103.323287 
L 128.262857 103.880544 
L 153.771429 103.872757 
L 179.878716 164.057143 
L 185.657143 178.21866 
L 217.542857 177.215185 
L 272.940041 241.714286 
L 281.314286 251.941987 
L 341.655798 319.371429 
L 345.085714 323.562011 
L 405.275471 397.028571 
z
" style="fill:#424086;"/>
   </g>
   <g id="PathCollection_3">
    <path clip-path="url(#p03993c3fb9)" d="M 115.508571 607.390044 
L 128.262857 612.173549 
L 153.771429 617.739432 
L 185.657143 621.238861 
L 201.685711 622.234286 
L 217.542857 622.234286 
L 281.314286 622.234286 
L 345.085714 622.234286 
L 408.857143 622.234286 
L 472.628571 622.234286 
L 536.4 622.234286 
L 536.4 603.662181 
L 472.628571 618.300219 
L 408.857143 616.189722 
L 345.085714 613.579322 
L 281.314286 610.67296 
L 217.542857 606.56989 
L 185.657143 602.960586 
L 164.788817 598.937143 
L 153.771429 596.603625 
L 128.262857 588.170937 
L 118.942743 583.405714 
L 115.508571 581.388767 
L 96.377143 557.302962 
L 96.377143 583.405714 
L 96.377143 591.33997 
L 105.07875 598.937143 
z
" style="fill:#33638d;"/>
    <path clip-path="url(#p03993c3fb9)" d="M 536.4 582.063708 
L 536.4 552.342857 
L 536.4 513.514286 
L 536.4 474.685714 
L 536.4 433.324248 
L 472.628571 424.868782 
L 408.857143 401.43234 
L 405.275471 397.028571 
L 345.085714 323.562011 
L 341.655798 319.371429 
L 281.314286 251.941987 
L 272.940041 241.714286 
L 217.542857 177.215185 
L 185.657143 178.21866 
L 179.878716 164.057143 
L 153.771429 103.872757 
L 128.262857 103.880544 
L 115.508571 103.323287 
L 111.351419 86.4 
L 108.628823 86.4 
L 115.508571 114.406658 
L 128.262857 114.857576 
L 153.771429 114.836023 
L 175.122978 164.057143 
L 185.657143 189.873813 
L 217.542857 189.004085 
L 262.814754 241.714286 
L 281.314286 264.308284 
L 330.589399 319.371429 
L 345.085714 337.082651 
L 394.198268 397.028571 
L 408.857143 415.05208 
L 464.034113 474.685714 
L 463.139195 513.514286 
L 472.628571 519.633501 
L 532.965432 552.342857 
z
" style="fill:#33638d;"/>
   </g>
   <g id="PathCollection_4">
    <path clip-path="url(#p03993c3fb9)" d="M 185.657143 602.960586 
L 217.542857 606.56989 
L 281.314286 610.67296 
L 345.085714 613.579322 
L 408.857143 616.189722 
L 472.628571 618.300219 
L 536.4 603.662181 
L 536.4 598.937143 
L 536.4 583.405714 
L 536.4 582.063708 
L 532.965432 552.342857 
L 472.628571 519.633501 
L 463.139195 513.514286 
L 464.034113 474.685714 
L 408.857143 415.05208 
L 394.198268 397.028571 
L 345.085714 337.082651 
L 330.589399 319.371429 
L 281.314286 264.308284 
L 262.814754 241.714286 
L 217.542857 189.004085 
L 185.657143 189.873813 
L 175.122978 164.057143 
L 153.771429 114.836023 
L 128.262857 114.857576 
L 115.508571 114.406658 
L 108.628823 86.4 
L 105.906227 86.4 
L 115.508571 125.49003 
L 128.262857 125.834607 
L 153.771429 125.799289 
L 170.367241 164.057143 
L 185.657143 201.528967 
L 217.542857 200.792985 
L 252.689468 241.714286 
L 281.314286 276.674582 
L 319.523 319.371429 
L 345.085714 350.60329 
L 383.121065 397.028571 
L 408.857143 428.67182 
L 451.432231 474.685714 
L 450.214405 513.514286 
L 472.628571 527.96804 
L 517.59124 552.342857 
L 514.093806 583.405714 
L 501.77788 598.937143 
L 472.628571 607.525682 
L 408.857143 604.434418 
L 345.085714 600.523104 
L 320.576412 598.937143 
L 281.314286 595.676313 
L 217.542857 589.452712 
L 185.657143 584.34276 
L 181.592426 583.405714 
L 153.771429 575.006464 
L 128.262857 564.070323 
L 115.508571 556.365201 
L 112.483718 552.342857 
L 100.282906 513.514286 
L 96.690087 474.685714 
L 96.377143 472.658594 
L 96.377143 474.685714 
L 96.377143 513.514286 
L 96.377143 552.342857 
L 96.377143 557.302962 
L 115.508571 581.388767 
L 118.942743 583.405714 
L 128.262857 588.170937 
L 153.771429 596.603625 
L 164.788817 598.937143 
z
" style="fill:#26818e;"/>
   </g>
   <g id="PathCollection_5">
    <path clip-path="url(#p03993c3fb9)" d="M 345.085714 600.523104 
L 408.857143 604.434418 
L 472.628571 607.525682 
L 501.77788 598.937143 
L 514.093806 583.405714 
L 517.59124 552.342857 
L 472.628571 527.96804 
L 450.214405 513.514286 
L 451.432231 474.685714 
L 408.857143 428.67182 
L 383.121065 397.028571 
L 345.085714 350.60329 
L 319.523 319.371429 
L 281.314286 276.674582 
L 252.689468 241.714286 
L 217.542857 200.792985 
L 185.657143 201.528967 
L 170.367241 164.057143 
L 153.771429 125.799289 
L 128.262857 125.834607 
L 115.508571 125.49003 
L 105.906227 86.4 
L 103.183632 86.4 
L 115.508571 136.573401 
L 128.262857 136.811639 
L 153.771429 136.762556 
L 165.611503 164.057143 
L 185.657143 213.18412 
L 217.542857 212.581885 
L 242.564182 241.714286 
L 281.314286 289.04088 
L 308.456602 319.371429 
L 345.085714 364.12393 
L 372.043862 397.028571 
L 408.857143 442.29156 
L 438.83035 474.685714 
L 437.289615 513.514286 
L 472.628571 536.302579 
L 502.217049 552.342857 
L 491.560311 583.405714 
L 472.628571 595.916084 
L 408.857143 590.919019 
L 345.085714 585.207343 
L 325.892749 583.405714 
L 281.314286 576.817989 
L 217.542857 567.012662 
L 185.657143 559.970936 
L 160.011288 552.342857 
L 153.771429 548.928062 
L 128.262857 528.434011 
L 116.508232 513.514286 
L 115.508571 511.405428 
L 109.352316 474.685714 
L 97.404806 397.028571 
L 96.377143 393.196275 
L 96.377143 397.028571 
L 96.377143 472.658594 
L 96.690087 474.685714 
L 100.282906 513.514286 
L 112.483718 552.342857 
L 115.508571 556.365201 
L 128.262857 564.070323 
L 153.771429 575.006464 
L 181.592426 583.405714 
L 185.657143 584.34276 
L 217.542857 589.452712 
L 281.314286 595.676313 
L 320.576412 598.937143 
z
" style="fill:#1fa088;"/>
   </g>
   <g id="PathCollection_6">
    <path clip-path="url(#p03993c3fb9)" d="M 345.085714 585.207343 
L 408.857143 590.919019 
L 472.628571 595.916084 
L 491.560311 583.405714 
L 502.217049 552.342857 
L 472.628571 536.302579 
L 437.289615 513.514286 
L 438.83035 474.685714 
L 408.857143 442.29156 
L 372.043862 397.028571 
L 345.085714 364.12393 
L 308.456602 319.371429 
L 281.314286 289.04088 
L 242.564182 241.714286 
L 217.542857 212.581885 
L 185.657143 213.18412 
L 165.611503 164.057143 
L 153.771429 136.762556 
L 128.262857 136.811639 
L 115.508571 136.573401 
L 103.183632 86.4 
L 100.461036 86.4 
L 115.508571 147.656772 
L 128.262857 147.788671 
L 153.771429 147.725822 
L 160.855766 164.057143 
L 185.657143 224.839273 
L 217.542857 224.370786 
L 232.438895 241.714286 
L 281.314286 301.407177 
L 297.390203 319.371429 
L 345.085714 377.64457 
L 360.966658 397.028571 
L 408.857143 455.9113 
L 426.228469 474.685714 
L 424.364825 513.514286 
L 472.628571 544.637117 
L 486.842858 552.342857 
L 472.628571 578.827043 
L 408.857143 570.142193 
L 345.085714 561.511821 
L 282.199389 552.342857 
L 281.314286 552.073586 
L 217.542857 532.049673 
L 185.657143 520.625714 
L 172.476113 513.514286 
L 153.771429 498.781194 
L 131.762876 474.685714 
L 128.262857 468.571928 
L 115.508571 429.670746 
L 110.594355 397.028571 
L 96.377143 344.010637 
L 96.377143 393.196275 
L 97.404806 397.028571 
L 109.352316 474.685714 
L 115.508571 511.405428 
L 116.508232 513.514286 
L 128.262857 528.434011 
L 153.771429 548.928062 
L 160.011288 552.342857 
L 185.657143 559.970936 
L 217.542857 567.012662 
L 281.314286 576.817989 
L 325.892749 583.405714 
z
" style="fill:#3fbc73;"/>
   </g>
   <g id="PathCollection_7">
    <path clip-path="url(#p03993c3fb9)" d="M 345.085714 561.511821 
L 408.857143 570.142193 
L 472.628571 578.827043 
L 486.842858 552.342857 
L 472.628571 544.637117 
L 424.364825 513.514286 
L 426.228469 474.685714 
L 408.857143 455.9113 
L 360.966658 397.028571 
L 345.085714 377.64457 
L 297.390203 319.371429 
L 281.314286 301.407177 
L 232.438895 241.714286 
L 217.542857 224.370786 
L 185.657143 224.839273 
L 160.855766 164.057143 
L 153.771429 147.725822 
L 128.262857 147.788671 
L 115.508571 147.656772 
L 100.461036 86.4 
L 97.738441 86.4 
L 115.508571 158.740144 
L 128.262857 158.765702 
L 153.771429 158.689088 
L 156.100028 164.057143 
L 185.657143 236.494427 
L 217.542857 236.159686 
L 222.313609 241.714286 
L 281.314286 313.773475 
L 286.323804 319.371429 
L 345.085714 391.16521 
L 349.889455 397.028571 
L 408.857143 469.53104 
L 413.626588 474.685714 
L 411.440035 513.514286 
L 408.857143 528.229943 
L 345.085714 514.123196 
L 342.656438 513.514286 
L 281.314286 486.101589 
L 258.566375 474.685714 
L 217.542857 439.743086 
L 185.657143 418.611962 
L 160.510654 397.028571 
L 153.771429 387.260026 
L 128.262857 346.896986 
L 115.508571 329.425765 
L 112.494883 319.371429 
L 96.377143 268.136965 
L 96.377143 319.371429 
L 96.377143 344.010637 
L 110.594355 397.028571 
L 115.508571 429.670746 
L 128.262857 468.571928 
L 131.762876 474.685714 
L 153.771429 498.781194 
L 172.476113 513.514286 
L 185.657143 520.625714 
L 217.542857 532.049673 
L 281.314286 552.073586 
L 282.199389 552.342857 
z
" style="fill:#84d44b;"/>
   </g>
   <g id="PathCollection_8">
    <path clip-path="url(#p03993c3fb9)" d="M 345.085714 514.123196 
L 408.857143 528.229943 
L 411.440035 513.514286 
L 413.626588 474.685714 
L 408.857143 469.53104 
L 349.889455 397.028571 
L 345.085714 391.16521 
L 286.323804 319.371429 
L 281.314286 313.773475 
L 222.313609 241.714286 
L 217.542857 236.159686 
L 185.657143 236.494427 
L 156.100028 164.057143 
L 153.771429 158.689088 
L 128.262857 158.765702 
L 115.508571 158.740144 
L 97.738441 86.4 
L 96.377143 86.4 
L 96.377143 164.057143 
L 96.377143 241.714286 
L 96.377143 268.136965 
L 112.494883 319.371429 
L 115.508571 329.425765 
L 128.262857 346.896986 
L 153.771429 387.260026 
L 160.510654 397.028571 
L 185.657143 418.611962 
L 217.542857 439.743086 
L 258.566375 474.685714 
L 281.314286 486.101589 
L 342.656438 513.514286 
z
" style="fill:#d8e219;"/>
   </g>
   <g id="matplotlib.axis_1">
    <g id="xtick_1">
     <g id="line2d_1">
      <defs>
       <path d="M 0 0 
L 0 3.5 
" id="mb3016d1a42" style="stroke:#000000;stroke-width:0.8;"/>
      </defs>
      <g>
       <use style="stroke:#000000;stroke-width:0.8;" x="90" xlink:href="#mb3016d1a42" y="630"/>
      </g>
     </g>
     <g id="text_1">
      <!-- 0 -->
      <g transform="translate(83.00125 653.716563)scale(0.22 -0.22)">
       <defs>
        <path d="M 31.78125 66.40625 
Q 24.171875 66.40625 20.328125 58.90625 
Q 16.5 51.421875 16.5 36.375 
Q 16.5 21.390625 20.328125 13.890625 
Q 24.171875 6.390625 31.78125 6.390625 
Q 39.453125 6.390625 43.28125 13.890625 
Q 47.125 21.390625 47.125 36.375 
Q 47.125 51.421875 43.28125 58.90625 
Q 39.453125 66.40625 31.78125 66.40625 
z
M 31.78125 74.21875 
Q 44.046875 74.21875 50.515625 64.515625 
Q 56.984375 54.828125 56.984375 36.375 
Q 56.984375 17.96875 50.515625 8.265625 
Q 44.046875 -1.421875 31.78125 -1.421875 
Q 19.53125 -1.421875 13.0625 8.265625 
Q 6.59375 17.96875 6.59375 36.375 
Q 6.59375 54.828125 13.0625 64.515625 
Q 19.53125 74.21875 31.78125 74.21875 
z
" id="DejaVuSans-48"/>
       </defs>
       <use xlink:href="#DejaVuSans-48"/>
      </g>
     </g>
    </g>
    <g id="xtick_2">
     <g id="line2d_2">
      <g>
       <use style="stroke:#000000;stroke-width:0.8;" x="217.542857" xlink:href="#mb3016d1a42" y="630"/>
      </g>
     </g>
     <g id="text_2">
      <!-- 200 -->
      <g transform="translate(196.546607 653.716563)scale(0.22 -0.22)">
       <defs>
        <path d="M 19.1875 8.296875 
L 53.609375 8.296875 
L 53.609375 0 
L 7.328125 0 
L 7.328125 8.296875 
Q 12.9375 14.109375 22.625 23.890625 
Q 32.328125 33.6875 34.8125 36.53125 
Q 39.546875 41.84375 41.421875 45.53125 
Q 43.3125 49.21875 43.3125 52.78125 
Q 43.3125 58.59375 39.234375 62.25 
Q 35.15625 65.921875 28.609375 65.921875 
Q 23.96875 65.921875 18.8125 64.3125 
Q 13.671875 62.703125 7.8125 59.421875 
L 7.8125 69.390625 
Q 13.765625 71.78125 18.9375 73 
Q 24.125 74.21875 28.421875 74.21875 
Q 39.75 74.21875 46.484375 68.546875 
Q 53.21875 62.890625 53.21875 53.421875 
Q 53.21875 48.921875 51.53125 44.890625 
Q 49.859375 40.875 45.40625 35.40625 
Q 44.1875 33.984375 37.640625 27.21875 
Q 31.109375 20.453125 19.1875 8.296875 
z
" id="DejaVuSans-50"/>
       </defs>
       <use xlink:href="#DejaVuSans-50"/>
       <use x="63.623047" xlink:href="#DejaVuSans-48"/>
       <use x="127.246094" xlink:href="#DejaVuSans-48"/>
      </g>
     </g>
    </g>
    <g id="xtick_3">
     <g id="line2d_3">
      <g>
       <use style="stroke:#000000;stroke-width:0.8;" x="345.085714" xlink:href="#mb3016d1a42" y="630"/>
      </g>
     </g>
     <g id="text_3">
      <!-- 400 -->
      <g transform="translate(324.089464 653.716563)scale(0.22 -0.22)">
       <defs>
        <path d="M 37.796875 64.3125 
L 12.890625 25.390625 
L 37.796875 25.390625 
z
M 35.203125 72.90625 
L 47.609375 72.90625 
L 47.609375 25.390625 
L 58.015625 25.390625 
L 58.015625 17.1875 
L 47.609375 17.1875 
L 47.609375 0 
L 37.796875 0 
L 37.796875 17.1875 
L 4.890625 17.1875 
L 4.890625 26.703125 
z
" id="DejaVuSans-52"/>
       </defs>
       <use xlink:href="#DejaVuSans-52"/>
       <use x="63.623047" xlink:href="#DejaVuSans-48"/>
       <use x="127.246094" xlink:href="#DejaVuSans-48"/>
      </g>
     </g>
    </g>
    <g id="xtick_4">
     <g id="line2d_4">
      <g>
       <use style="stroke:#000000;stroke-width:0.8;" x="472.628571" xlink:href="#mb3016d1a42" y="630"/>
      </g>
     </g>
     <g id="text_4">
      <!-- 600 -->
      <g transform="translate(451.632321 653.716563)scale(0.22 -0.22)">
       <defs>
        <path d="M 33.015625 40.375 
Q 26.375 40.375 22.484375 35.828125 
Q 18.609375 31.296875 18.609375 23.390625 
Q 18.609375 15.53125 22.484375 10.953125 
Q 26.375 6.390625 33.015625 6.390625 
Q 39.65625 6.390625 43.53125 10.953125 
Q 47.40625 15.53125 47.40625 23.390625 
Q 47.40625 31.296875 43.53125 35.828125 
Q 39.65625 40.375 33.015625 40.375 
z
M 52.59375 71.296875 
L 52.59375 62.3125 
Q 48.875 64.0625 45.09375 64.984375 
Q 41.3125 65.921875 37.59375 65.921875 
Q 27.828125 65.921875 22.671875 59.328125 
Q 17.53125 52.734375 16.796875 39.40625 
Q 19.671875 43.65625 24.015625 45.921875 
Q 28.375 48.1875 33.59375 48.1875 
Q 44.578125 48.1875 50.953125 41.515625 
Q 57.328125 34.859375 57.328125 23.390625 
Q 57.328125 12.15625 50.6875 5.359375 
Q 44.046875 -1.421875 33.015625 -1.421875 
Q 20.359375 -1.421875 13.671875 8.265625 
Q 6.984375 17.96875 6.984375 36.375 
Q 6.984375 53.65625 15.1875 63.9375 
Q 23.390625 74.21875 37.203125 74.21875 
Q 40.921875 74.21875 44.703125 73.484375 
Q 48.484375 72.75 52.59375 71.296875 
z
" id="DejaVuSans-54"/>
       </defs>
       <use xlink:href="#DejaVuSans-54"/>
       <use x="63.623047" xlink:href="#DejaVuSans-48"/>
       <use x="127.246094" xlink:href="#DejaVuSans-48"/>
      </g>
     </g>
    </g>
    <g id="text_5">
     <!-- Data Subspace Dim -->
     <g transform="translate(150.141328 687.366719)scale(0.33 -0.33)">
      <defs>
       <path d="M 19.671875 64.796875 
L 19.671875 8.109375 
L 31.59375 8.109375 
Q 46.6875 8.109375 53.6875 14.9375 
Q 60.6875 21.78125 60.6875 36.53125 
Q 60.6875 51.171875 53.6875 57.984375 
Q 46.6875 64.796875 31.59375 64.796875 
z
M 9.8125 72.90625 
L 30.078125 72.90625 
Q 51.265625 72.90625 61.171875 64.09375 
Q 71.09375 55.28125 71.09375 36.53125 
Q 71.09375 17.671875 61.125 8.828125 
Q 51.171875 0 30.078125 0 
L 9.8125 0 
z
" id="DejaVuSans-68"/>
       <path d="M 34.28125 27.484375 
Q 23.390625 27.484375 19.1875 25 
Q 14.984375 22.515625 14.984375 16.5 
Q 14.984375 11.71875 18.140625 8.90625 
Q 21.296875 6.109375 26.703125 6.109375 
Q 34.1875 6.109375 38.703125 11.40625 
Q 43.21875 16.703125 43.21875 25.484375 
L 43.21875 27.484375 
z
M 52.203125 31.203125 
L 52.203125 0 
L 43.21875 0 
L 43.21875 8.296875 
Q 40.140625 3.328125 35.546875 0.953125 
Q 30.953125 -1.421875 24.3125 -1.421875 
Q 15.921875 -1.421875 10.953125 3.296875 
Q 6 8.015625 6 15.921875 
Q 6 25.140625 12.171875 29.828125 
Q 18.359375 34.515625 30.609375 34.515625 
L 43.21875 34.515625 
L 43.21875 35.40625 
Q 43.21875 41.609375 39.140625 45 
Q 35.0625 48.390625 27.6875 48.390625 
Q 23 48.390625 18.546875 47.265625 
Q 14.109375 46.140625 10.015625 43.890625 
L 10.015625 52.203125 
Q 14.9375 54.109375 19.578125 55.046875 
Q 24.21875 56 28.609375 56 
Q 40.484375 56 46.34375 49.84375 
Q 52.203125 43.703125 52.203125 31.203125 
z
" id="DejaVuSans-97"/>
       <path d="M 18.3125 70.21875 
L 18.3125 54.6875 
L 36.8125 54.6875 
L 36.8125 47.703125 
L 18.3125 47.703125 
L 18.3125 18.015625 
Q 18.3125 11.328125 20.140625 9.421875 
Q 21.96875 7.515625 27.59375 7.515625 
L 36.8125 7.515625 
L 36.8125 0 
L 27.59375 0 
Q 17.1875 0 13.234375 3.875 
Q 9.28125 7.765625 9.28125 18.015625 
L 9.28125 47.703125 
L 2.6875 47.703125 
L 2.6875 54.6875 
L 9.28125 54.6875 
L 9.28125 70.21875 
z
" id="DejaVuSans-116"/>
       <path id="DejaVuSans-32"/>
       <path d="M 53.515625 70.515625 
L 53.515625 60.890625 
Q 47.90625 63.578125 42.921875 64.890625 
Q 37.9375 66.21875 33.296875 66.21875 
Q 25.25 66.21875 20.875 63.09375 
Q 16.5 59.96875 16.5 54.203125 
Q 16.5 49.359375 19.40625 46.890625 
Q 22.3125 44.4375 30.421875 42.921875 
L 36.375 41.703125 
Q 47.40625 39.59375 52.65625 34.296875 
Q 57.90625 29 57.90625 20.125 
Q 57.90625 9.515625 50.796875 4.046875 
Q 43.703125 -1.421875 29.984375 -1.421875 
Q 24.8125 -1.421875 18.96875 -0.25 
Q 13.140625 0.921875 6.890625 3.21875 
L 6.890625 13.375 
Q 12.890625 10.015625 18.65625 8.296875 
Q 24.421875 6.59375 29.984375 6.59375 
Q 38.421875 6.59375 43.015625 9.90625 
Q 47.609375 13.234375 47.609375 19.390625 
Q 47.609375 24.75 44.3125 27.78125 
Q 41.015625 30.8125 33.5 32.328125 
L 27.484375 33.5 
Q 16.453125 35.6875 11.515625 40.375 
Q 6.59375 45.0625 6.59375 53.421875 
Q 6.59375 63.09375 13.40625 68.65625 
Q 20.21875 74.21875 32.171875 74.21875 
Q 37.3125 74.21875 42.625 73.28125 
Q 47.953125 72.359375 53.515625 70.515625 
z
" id="DejaVuSans-83"/>
       <path d="M 8.5 21.578125 
L 8.5 54.6875 
L 17.484375 54.6875 
L 17.484375 21.921875 
Q 17.484375 14.15625 20.5 10.265625 
Q 23.53125 6.390625 29.59375 6.390625 
Q 36.859375 6.390625 41.078125 11.03125 
Q 45.3125 15.671875 45.3125 23.6875 
L 45.3125 54.6875 
L 54.296875 54.6875 
L 54.296875 0 
L 45.3125 0 
L 45.3125 8.40625 
Q 42.046875 3.421875 37.71875 1 
Q 33.40625 -1.421875 27.6875 -1.421875 
Q 18.265625 -1.421875 13.375 4.4375 
Q 8.5 10.296875 8.5 21.578125 
z
M 31.109375 56 
z
" id="DejaVuSans-117"/>
       <path d="M 48.6875 27.296875 
Q 48.6875 37.203125 44.609375 42.84375 
Q 40.53125 48.484375 33.40625 48.484375 
Q 26.265625 48.484375 22.1875 42.84375 
Q 18.109375 37.203125 18.109375 27.296875 
Q 18.109375 17.390625 22.1875 11.75 
Q 26.265625 6.109375 33.40625 6.109375 
Q 40.53125 6.109375 44.609375 11.75 
Q 48.6875 17.390625 48.6875 27.296875 
z
M 18.109375 46.390625 
Q 20.953125 51.265625 25.265625 53.625 
Q 29.59375 56 35.59375 56 
Q 45.5625 56 51.78125 48.09375 
Q 58.015625 40.1875 58.015625 27.296875 
Q 58.015625 14.40625 51.78125 6.484375 
Q 45.5625 -1.421875 35.59375 -1.421875 
Q 29.59375 -1.421875 25.265625 0.953125 
Q 20.953125 3.328125 18.109375 8.203125 
L 18.109375 0 
L 9.078125 0 
L 9.078125 75.984375 
L 18.109375 75.984375 
z
" id="DejaVuSans-98"/>
       <path d="M 44.28125 53.078125 
L 44.28125 44.578125 
Q 40.484375 46.53125 36.375 47.5 
Q 32.28125 48.484375 27.875 48.484375 
Q 21.1875 48.484375 17.84375 46.4375 
Q 14.5 44.390625 14.5 40.28125 
Q 14.5 37.15625 16.890625 35.375 
Q 19.28125 33.59375 26.515625 31.984375 
L 29.59375 31.296875 
Q 39.15625 29.25 43.1875 25.515625 
Q 47.21875 21.78125 47.21875 15.09375 
Q 47.21875 7.46875 41.1875 3.015625 
Q 35.15625 -1.421875 24.609375 -1.421875 
Q 20.21875 -1.421875 15.453125 -0.5625 
Q 10.6875 0.296875 5.421875 2 
L 5.421875 11.28125 
Q 10.40625 8.6875 15.234375 7.390625 
Q 20.0625 6.109375 24.8125 6.109375 
Q 31.15625 6.109375 34.5625 8.28125 
Q 37.984375 10.453125 37.984375 14.40625 
Q 37.984375 18.0625 35.515625 20.015625 
Q 33.0625 21.96875 24.703125 23.78125 
L 21.578125 24.515625 
Q 13.234375 26.265625 9.515625 29.90625 
Q 5.8125 33.546875 5.8125 39.890625 
Q 5.8125 47.609375 11.28125 51.796875 
Q 16.75 56 26.8125 56 
Q 31.78125 56 36.171875 55.265625 
Q 40.578125 54.546875 44.28125 53.078125 
z
" id="DejaVuSans-115"/>
       <path d="M 18.109375 8.203125 
L 18.109375 -20.796875 
L 9.078125 -20.796875 
L 9.078125 54.6875 
L 18.109375 54.6875 
L 18.109375 46.390625 
Q 20.953125 51.265625 25.265625 53.625 
Q 29.59375 56 35.59375 56 
Q 45.5625 56 51.78125 48.09375 
Q 58.015625 40.1875 58.015625 27.296875 
Q 58.015625 14.40625 51.78125 6.484375 
Q 45.5625 -1.421875 35.59375 -1.421875 
Q 29.59375 -1.421875 25.265625 0.953125 
Q 20.953125 3.328125 18.109375 8.203125 
z
M 48.6875 27.296875 
Q 48.6875 37.203125 44.609375 42.84375 
Q 40.53125 48.484375 33.40625 48.484375 
Q 26.265625 48.484375 22.1875 42.84375 
Q 18.109375 37.203125 18.109375 27.296875 
Q 18.109375 17.390625 22.1875 11.75 
Q 26.265625 6.109375 33.40625 6.109375 
Q 40.53125 6.109375 44.609375 11.75 
Q 48.6875 17.390625 48.6875 27.296875 
z
" id="DejaVuSans-112"/>
       <path d="M 48.78125 52.59375 
L 48.78125 44.1875 
Q 44.96875 46.296875 41.140625 47.34375 
Q 37.3125 48.390625 33.40625 48.390625 
Q 24.65625 48.390625 19.8125 42.84375 
Q 14.984375 37.3125 14.984375 27.296875 
Q 14.984375 17.28125 19.8125 11.734375 
Q 24.65625 6.203125 33.40625 6.203125 
Q 37.3125 6.203125 41.140625 7.25 
Q 44.96875 8.296875 48.78125 10.40625 
L 48.78125 2.09375 
Q 45.015625 0.34375 40.984375 -0.53125 
Q 36.96875 -1.421875 32.421875 -1.421875 
Q 20.0625 -1.421875 12.78125 6.34375 
Q 5.515625 14.109375 5.515625 27.296875 
Q 5.515625 40.671875 12.859375 48.328125 
Q 20.21875 56 33.015625 56 
Q 37.15625 56 41.109375 55.140625 
Q 45.0625 54.296875 48.78125 52.59375 
z
" id="DejaVuSans-99"/>
       <path d="M 56.203125 29.59375 
L 56.203125 25.203125 
L 14.890625 25.203125 
Q 15.484375 15.921875 20.484375 11.0625 
Q 25.484375 6.203125 34.421875 6.203125 
Q 39.59375 6.203125 44.453125 7.46875 
Q 49.3125 8.734375 54.109375 11.28125 
L 54.109375 2.78125 
Q 49.265625 0.734375 44.1875 -0.34375 
Q 39.109375 -1.421875 33.890625 -1.421875 
Q 20.796875 -1.421875 13.15625 6.1875 
Q 5.515625 13.8125 5.515625 26.8125 
Q 5.515625 40.234375 12.765625 48.109375 
Q 20.015625 56 32.328125 56 
Q 43.359375 56 49.78125 48.890625 
Q 56.203125 41.796875 56.203125 29.59375 
z
M 47.21875 32.234375 
Q 47.125 39.59375 43.09375 43.984375 
Q 39.0625 48.390625 32.421875 48.390625 
Q 24.90625 48.390625 20.390625 44.140625 
Q 15.875 39.890625 15.1875 32.171875 
z
" id="DejaVuSans-101"/>
       <path d="M 9.421875 54.6875 
L 18.40625 54.6875 
L 18.40625 0 
L 9.421875 0 
z
M 9.421875 75.984375 
L 18.40625 75.984375 
L 18.40625 64.59375 
L 9.421875 64.59375 
z
" id="DejaVuSans-105"/>
       <path d="M 52 44.1875 
Q 55.375 50.25 60.0625 53.125 
Q 64.75 56 71.09375 56 
Q 79.640625 56 84.28125 50.015625 
Q 88.921875 44.046875 88.921875 33.015625 
L 88.921875 0 
L 79.890625 0 
L 79.890625 32.71875 
Q 79.890625 40.578125 77.09375 44.375 
Q 74.3125 48.1875 68.609375 48.1875 
Q 61.625 48.1875 57.5625 43.546875 
Q 53.515625 38.921875 53.515625 30.90625 
L 53.515625 0 
L 44.484375 0 
L 44.484375 32.71875 
Q 44.484375 40.625 41.703125 44.40625 
Q 38.921875 48.1875 33.109375 48.1875 
Q 26.21875 48.1875 22.15625 43.53125 
Q 18.109375 38.875 18.109375 30.90625 
L 18.109375 0 
L 9.078125 0 
L 9.078125 54.6875 
L 18.109375 54.6875 
L 18.109375 46.1875 
Q 21.1875 51.21875 25.484375 53.609375 
Q 29.78125 56 35.6875 56 
Q 41.65625 56 45.828125 52.96875 
Q 50 49.953125 52 44.1875 
z
" id="DejaVuSans-109"/>
      </defs>
      <use xlink:href="#DejaVuSans-68"/>
      <use x="77.001953" xlink:href="#DejaVuSans-97"/>
      <use x="138.28125" xlink:href="#DejaVuSans-116"/>
      <use x="177.490234" xlink:href="#DejaVuSans-97"/>
      <use x="238.769531" xlink:href="#DejaVuSans-32"/>
      <use x="270.556641" xlink:href="#DejaVuSans-83"/>
      <use x="334.033203" xlink:href="#DejaVuSans-117"/>
      <use x="397.412109" xlink:href="#DejaVuSans-98"/>
      <use x="460.888672" xlink:href="#DejaVuSans-115"/>
      <use x="512.988281" xlink:href="#DejaVuSans-112"/>
      <use x="576.464844" xlink:href="#DejaVuSans-97"/>
      <use x="637.744141" xlink:href="#DejaVuSans-99"/>
      <use x="692.724609" xlink:href="#DejaVuSans-101"/>
      <use x="754.248047" xlink:href="#DejaVuSans-32"/>
      <use x="786.035156" xlink:href="#DejaVuSans-68"/>
      <use x="863.037109" xlink:href="#DejaVuSans-105"/>
      <use x="890.820312" xlink:href="#DejaVuSans-109"/>
     </g>
    </g>
   </g>
   <g id="matplotlib.axis_2">
    <g id="ytick_1">
     <g id="line2d_5">
      <defs>
       <path d="M 0 0 
L -3.5 0 
" id="m85ad881416" style="stroke:#000000;stroke-width:0.8;"/>
      </defs>
      <g>
       <use style="stroke:#000000;stroke-width:0.8;" x="90" xlink:href="#m85ad881416" y="630"/>
      </g>
     </g>
     <g id="text_6">
      <!-- 0 -->
      <g transform="translate(69.0025 638.358281)scale(0.22 -0.22)">
       <use xlink:href="#DejaVuSans-48"/>
      </g>
     </g>
    </g>
    <g id="ytick_2">
     <g id="line2d_6">
      <g>
       <use style="stroke:#000000;stroke-width:0.8;" x="90" xlink:href="#m85ad881416" y="474.685714"/>
      </g>
     </g>
     <g id="text_7">
      <!-- 200 -->
      <g transform="translate(41.0075 483.043996)scale(0.22 -0.22)">
       <use xlink:href="#DejaVuSans-50"/>
       <use x="63.623047" xlink:href="#DejaVuSans-48"/>
       <use x="127.246094" xlink:href="#DejaVuSans-48"/>
      </g>
     </g>
    </g>
    <g id="ytick_3">
     <g id="line2d_7">
      <g>
       <use style="stroke:#000000;stroke-width:0.8;" x="90" xlink:href="#m85ad881416" y="319.371429"/>
      </g>
     </g>
     <g id="text_8">
      <!-- 400 -->
      <g transform="translate(41.0075 327.72971)scale(0.22 -0.22)">
       <use xlink:href="#DejaVuSans-52"/>
       <use x="63.623047" xlink:href="#DejaVuSans-48"/>
       <use x="127.246094" xlink:href="#DejaVuSans-48"/>
      </g>
     </g>
    </g>
    <g id="ytick_4">
     <g id="line2d_8">
      <g>
       <use style="stroke:#000000;stroke-width:0.8;" x="90" xlink:href="#m85ad881416" y="164.057143"/>
      </g>
     </g>
     <g id="text_9">
      <!-- 600 -->
      <g transform="translate(41.0075 172.415424)scale(0.22 -0.22)">
       <use xlink:href="#DejaVuSans-54"/>
       <use x="63.623047" xlink:href="#DejaVuSans-48"/>
       <use x="127.246094" xlink:href="#DejaVuSans-48"/>
      </g>
     </g>
    </g>
    <g id="text_10">
     <!-- Adv Subspace Dim -->
     <g transform="translate(30.144531 513.101484)rotate(-90)scale(0.33 -0.33)">
      <defs>
       <path d="M 34.1875 63.1875 
L 20.796875 26.90625 
L 47.609375 26.90625 
z
M 28.609375 72.90625 
L 39.796875 72.90625 
L 67.578125 0 
L 57.328125 0 
L 50.6875 18.703125 
L 17.828125 18.703125 
L 11.1875 0 
L 0.78125 0 
z
" id="DejaVuSans-65"/>
       <path d="M 45.40625 46.390625 
L 45.40625 75.984375 
L 54.390625 75.984375 
L 54.390625 0 
L 45.40625 0 
L 45.40625 8.203125 
Q 42.578125 3.328125 38.25 0.953125 
Q 33.9375 -1.421875 27.875 -1.421875 
Q 17.96875 -1.421875 11.734375 6.484375 
Q 5.515625 14.40625 5.515625 27.296875 
Q 5.515625 40.1875 11.734375 48.09375 
Q 17.96875 56 27.875 56 
Q 33.9375 56 38.25 53.625 
Q 42.578125 51.265625 45.40625 46.390625 
z
M 14.796875 27.296875 
Q 14.796875 17.390625 18.875 11.75 
Q 22.953125 6.109375 30.078125 6.109375 
Q 37.203125 6.109375 41.296875 11.75 
Q 45.40625 17.390625 45.40625 27.296875 
Q 45.40625 37.203125 41.296875 42.84375 
Q 37.203125 48.484375 30.078125 48.484375 
Q 22.953125 48.484375 18.875 42.84375 
Q 14.796875 37.203125 14.796875 27.296875 
z
" id="DejaVuSans-100"/>
       <path d="M 2.984375 54.6875 
L 12.5 54.6875 
L 29.59375 8.796875 
L 46.6875 54.6875 
L 56.203125 54.6875 
L 35.6875 0 
L 23.484375 0 
z
" id="DejaVuSans-118"/>
      </defs>
      <use xlink:href="#DejaVuSans-65"/>
      <use x="66.658203" xlink:href="#DejaVuSans-100"/>
      <use x="130.134766" xlink:href="#DejaVuSans-118"/>
      <use x="189.314453" xlink:href="#DejaVuSans-32"/>
      <use x="221.101562" xlink:href="#DejaVuSans-83"/>
      <use x="284.578125" xlink:href="#DejaVuSans-117"/>
      <use x="347.957031" xlink:href="#DejaVuSans-98"/>
      <use x="411.433594" xlink:href="#DejaVuSans-115"/>
      <use x="463.533203" xlink:href="#DejaVuSans-112"/>
      <use x="527.009766" xlink:href="#DejaVuSans-97"/>
      <use x="588.289062" xlink:href="#DejaVuSans-99"/>
      <use x="643.269531" xlink:href="#DejaVuSans-101"/>
      <use x="704.792969" xlink:href="#DejaVuSans-32"/>
      <use x="736.580078" xlink:href="#DejaVuSans-68"/>
      <use x="813.582031" xlink:href="#DejaVuSans-105"/>
      <use x="841.365234" xlink:href="#DejaVuSans-109"/>
     </g>
    </g>
   </g>
   <g id="LineCollection_1">
    <path clip-path="url(#p03993c3fb9)" d="M 90 630 
" style="fill:none;stroke:#000000;stroke-width:1.5;"/>
   </g>
   <g id="LineCollection_2">
    <path clip-path="url(#p03993c3fb9)" d="M 120.746598 512.127136 
L 217.542857 630 
L 217.542857 630 
" style="fill:none;stroke:#000000;stroke-width:1.5;"/>
   </g>
   <g id="LineCollection_3">
    <path clip-path="url(#p03993c3fb9)" d="M 90 319.371429 
L 176.592831 424.81915 
L 176.592831 424.81915 
" style="fill:none;stroke:#000000;stroke-width:1.5;"/>
    <path clip-path="url(#p03993c3fb9)" d="M 208.751169 463.979707 
L 345.085714 630 
L 345.085714 630 
" style="fill:none;stroke:#000000;stroke-width:1.5;"/>
   </g>
   <g id="LineCollection_4">
    <path clip-path="url(#p03993c3fb9)" d="M 90 164.057143 
L 352.601973 483.838578 
L 352.601973 483.838578 
" style="fill:none;stroke:#000000;stroke-width:1.5;"/>
    <path clip-path="url(#p03993c3fb9)" d="M 384.760312 522.999136 
L 472.628571 630 
L 472.628571 630 
" style="fill:none;stroke:#000000;stroke-width:1.5;"/>
   </g>
   <g id="LineCollection_5">
    <path clip-path="url(#p03993c3fb9)" d="M 154.409143 87.176571 
L 387.676259 371.235721 
L 387.676259 371.235721 
" style="fill:none;stroke:#000000;stroke-width:1.5;"/>
    <path clip-path="url(#p03993c3fb9)" d="M 419.834598 410.396279 
L 535.762286 551.566286 
L 535.762286 551.566286 
" style="fill:none;stroke:#000000;stroke-width:1.5;"/>
   </g>
   <g id="LineCollection_6">
    <path clip-path="url(#p03993c3fb9)" d="M 281.952 87.176571 
L 380.04853 206.632829 
L 380.04853 206.632829 
" style="fill:none;stroke:#000000;stroke-width:1.5;"/>
    <path clip-path="url(#p03993c3fb9)" d="M 415.98347 250.392314 
L 535.762286 396.252 
L 535.762286 396.252 
" style="fill:none;stroke:#000000;stroke-width:1.5;"/>
   </g>
   <g id="LineCollection_7">
    <path clip-path="url(#p03993c3fb9)" d="M 409.494857 87.176571 
L 507.591387 206.632829 
L 507.591387 206.632829 
" style="fill:none;stroke:#000000;stroke-width:1.5;"/>
   </g>
   <g id="LineCollection_8"/>
   <g id="patch_3">
    <path d="M 90 630 
L 90 86.4 
" style="fill:none;stroke:#000000;stroke-linecap:square;stroke-linejoin:miter;stroke-width:0.8;"/>
   </g>
   <g id="patch_4">
    <path d="M 536.4 630 
L 536.4 86.4 
" style="fill:none;stroke:#000000;stroke-linecap:square;stroke-linejoin:miter;stroke-width:0.8;"/>
   </g>
   <g id="patch_5">
    <path d="M 90 630 
L 536.4 630 
" style="fill:none;stroke:#000000;stroke-linecap:square;stroke-linejoin:miter;stroke-width:0.8;"/>
   </g>
   <g id="patch_6">
    <path d="M 90 86.4 
L 536.4 86.4 
" style="fill:none;stroke:#000000;stroke-linecap:square;stroke-linejoin:miter;stroke-width:0.8;"/>
   </g>
   <g id="text_11">
    <g clip-path="url(#p03993c3fb9)">
     <!-- 200.000 -->
     <g transform="translate(86.257946 478.850012)rotate(-315.748922)scale(0.11 -0.11)">
      <defs>
       <path d="M 10.6875 12.40625 
L 21 12.40625 
L 21 0 
L 10.6875 0 
z
" id="DejaVuSans-46"/>
      </defs>
      <use xlink:href="#DejaVuSans-50"/>
      <use x="63.623047" xlink:href="#DejaVuSans-48"/>
      <use x="127.246094" xlink:href="#DejaVuSans-48"/>
      <use x="190.869141" xlink:href="#DejaVuSans-46"/>
      <use x="222.65625" xlink:href="#DejaVuSans-48"/>
      <use x="286.279297" xlink:href="#DejaVuSans-48"/>
      <use x="349.902344" xlink:href="#DejaVuSans-48"/>
     </g>
    </g>
   </g>
   <g id="text_12">
    <g clip-path="url(#p03993c3fb9)">
     <!-- 400.000 -->
     <g transform="translate(174.262518 430.702584)rotate(-315.748922)scale(0.11 -0.11)">
      <use xlink:href="#DejaVuSans-52"/>
      <use x="63.623047" xlink:href="#DejaVuSans-48"/>
      <use x="127.246094" xlink:href="#DejaVuSans-48"/>
      <use x="190.869141" xlink:href="#DejaVuSans-46"/>
      <use x="222.65625" xlink:href="#DejaVuSans-48"/>
      <use x="286.279297" xlink:href="#DejaVuSans-48"/>
      <use x="349.902344" xlink:href="#DejaVuSans-48"/>
     </g>
    </g>
   </g>
   <g id="text_13">
    <g clip-path="url(#p03993c3fb9)">
     <!-- 600.000 -->
     <g transform="translate(350.27166 489.722012)rotate(-315.748922)scale(0.11 -0.11)">
      <use xlink:href="#DejaVuSans-54"/>
      <use x="63.623047" xlink:href="#DejaVuSans-48"/>
      <use x="127.246094" xlink:href="#DejaVuSans-48"/>
      <use x="190.869141" xlink:href="#DejaVuSans-46"/>
      <use x="222.65625" xlink:href="#DejaVuSans-48"/>
      <use x="286.279297" xlink:href="#DejaVuSans-48"/>
      <use x="349.902344" xlink:href="#DejaVuSans-48"/>
     </g>
    </g>
   </g>
   <g id="text_14">
    <g clip-path="url(#p03993c3fb9)">
     <!-- 800.000 -->
     <g transform="translate(385.345946 377.119155)rotate(-315.748922)scale(0.11 -0.11)">
      <defs>
       <path d="M 31.78125 34.625 
Q 24.75 34.625 20.71875 30.859375 
Q 16.703125 27.09375 16.703125 20.515625 
Q 16.703125 13.921875 20.71875 10.15625 
Q 24.75 6.390625 31.78125 6.390625 
Q 38.8125 6.390625 42.859375 10.171875 
Q 46.921875 13.96875 46.921875 20.515625 
Q 46.921875 27.09375 42.890625 30.859375 
Q 38.875 34.625 31.78125 34.625 
z
M 21.921875 38.8125 
Q 15.578125 40.375 12.03125 44.71875 
Q 8.5 49.078125 8.5 55.328125 
Q 8.5 64.0625 14.71875 69.140625 
Q 20.953125 74.21875 31.78125 74.21875 
Q 42.671875 74.21875 48.875 69.140625 
Q 55.078125 64.0625 55.078125 55.328125 
Q 55.078125 49.078125 51.53125 44.71875 
Q 48 40.375 41.703125 38.8125 
Q 48.828125 37.15625 52.796875 32.3125 
Q 56.78125 27.484375 56.78125 20.515625 
Q 56.78125 9.90625 50.3125 4.234375 
Q 43.84375 -1.421875 31.78125 -1.421875 
Q 19.734375 -1.421875 13.25 4.234375 
Q 6.78125 9.90625 6.78125 20.515625 
Q 6.78125 27.484375 10.78125 32.3125 
Q 14.796875 37.15625 21.921875 38.8125 
z
M 18.3125 54.390625 
Q 18.3125 48.734375 21.84375 45.5625 
Q 25.390625 42.390625 31.78125 42.390625 
Q 38.140625 42.390625 41.71875 45.5625 
Q 45.3125 48.734375 45.3125 54.390625 
Q 45.3125 60.0625 41.71875 63.234375 
Q 38.140625 66.40625 31.78125 66.40625 
Q 25.390625 66.40625 21.84375 63.234375 
Q 18.3125 60.0625 18.3125 54.390625 
z
" id="DejaVuSans-56"/>
      </defs>
      <use xlink:href="#DejaVuSans-56"/>
      <use x="63.623047" xlink:href="#DejaVuSans-48"/>
      <use x="127.246094" xlink:href="#DejaVuSans-48"/>
      <use x="190.869141" xlink:href="#DejaVuSans-46"/>
      <use x="222.65625" xlink:href="#DejaVuSans-48"/>
      <use x="286.279297" xlink:href="#DejaVuSans-48"/>
      <use x="349.902344" xlink:href="#DejaVuSans-48"/>
     </g>
    </g>
   </g>
   <g id="text_15">
    <g clip-path="url(#p03993c3fb9)">
     <!-- 1000.000 -->
     <g transform="translate(377.099954 212.373849)rotate(-315.748922)scale(0.11 -0.11)">
      <defs>
       <path d="M 12.40625 8.296875 
L 28.515625 8.296875 
L 28.515625 63.921875 
L 10.984375 60.40625 
L 10.984375 69.390625 
L 28.421875 72.90625 
L 38.28125 72.90625 
L 38.28125 8.296875 
L 54.390625 8.296875 
L 54.390625 0 
L 12.40625 0 
z
" id="DejaVuSans-49"/>
      </defs>
      <use xlink:href="#DejaVuSans-49"/>
      <use x="63.623047" xlink:href="#DejaVuSans-48"/>
      <use x="127.246094" xlink:href="#DejaVuSans-48"/>
      <use x="190.869141" xlink:href="#DejaVuSans-48"/>
      <use x="254.492188" xlink:href="#DejaVuSans-46"/>
      <use x="286.279297" xlink:href="#DejaVuSans-48"/>
      <use x="349.902344" xlink:href="#DejaVuSans-48"/>
      <use x="413.525391" xlink:href="#DejaVuSans-48"/>
     </g>
    </g>
   </g>
   <g id="text_16">
    <g clip-path="url(#p03993c3fb9)">
     <!-- 1200.000 -->
     <g transform="translate(504.642812 212.373849)rotate(-315.748922)scale(0.11 -0.11)">
      <use xlink:href="#DejaVuSans-49"/>
      <use x="63.623047" xlink:href="#DejaVuSans-50"/>
      <use x="127.246094" xlink:href="#DejaVuSans-48"/>
      <use x="190.869141" xlink:href="#DejaVuSans-48"/>
      <use x="254.492188" xlink:href="#DejaVuSans-46"/>
      <use x="286.279297" xlink:href="#DejaVuSans-48"/>
      <use x="349.902344" xlink:href="#DejaVuSans-48"/>
      <use x="413.525391" xlink:href="#DejaVuSans-48"/>
     </g>
    </g>
   </g>
  </g>
  <g id="axes_2">
   <g id="patch_7">
    <path clip-path="url(#p8dc38ae6b8)" d="M 564.3 630 
L 564.3 562.05 
L 564.3 154.35 
L 564.3 86.4 
L 591.48 86.4 
L 591.48 154.35 
L 591.48 562.05 
L 591.48 630 
z
" style="fill:#ffffff;stroke:#ffffff;stroke-linejoin:miter;stroke-width:0.01;"/>
   </g>
   <g id="QuadMesh_1">
    <path clip-path="url(#p8dc38ae6b8)" d="M 564.3 630 
L 591.48 630 
L 591.48 562.05 
L 564.3 562.05 
L 564.3 630 
" style="fill:#48186a;"/>
    <path clip-path="url(#p8dc38ae6b8)" d="M 564.3 562.05 
L 591.48 562.05 
L 591.48 494.1 
L 564.3 494.1 
L 564.3 562.05 
" style="fill:#424086;"/>
    <path clip-path="url(#p8dc38ae6b8)" d="M 564.3 494.1 
L 591.48 494.1 
L 591.48 426.15 
L 564.3 426.15 
L 564.3 494.1 
" style="fill:#33638d;"/>
    <path clip-path="url(#p8dc38ae6b8)" d="M 564.3 426.15 
L 591.48 426.15 
L 591.48 358.2 
L 564.3 358.2 
L 564.3 426.15 
" style="fill:#26818e;"/>
    <path clip-path="url(#p8dc38ae6b8)" d="M 564.3 358.2 
L 591.48 358.2 
L 591.48 290.25 
L 564.3 290.25 
L 564.3 358.2 
" style="fill:#1fa088;"/>
    <path clip-path="url(#p8dc38ae6b8)" d="M 564.3 290.25 
L 591.48 290.25 
L 591.48 222.3 
L 564.3 222.3 
L 564.3 290.25 
" style="fill:#3fbc73;"/>
    <path clip-path="url(#p8dc38ae6b8)" d="M 564.3 222.3 
L 591.48 222.3 
L 591.48 154.35 
L 564.3 154.35 
L 564.3 222.3 
" style="fill:#84d44b;"/>
    <path clip-path="url(#p8dc38ae6b8)" d="M 564.3 154.35 
L 591.48 154.35 
L 591.48 86.4 
L 564.3 86.4 
L 564.3 154.35 
" style="fill:#d8e219;"/>
   </g>
   <g id="matplotlib.axis_3"/>
   <g id="matplotlib.axis_4">
    <g id="ytick_5">
     <g id="line2d_9">
      <defs>
       <path d="M 0 0 
L 3.5 0 
" id="m651fd02136" style="stroke:#000000;stroke-width:0.8;"/>
      </defs>
      <g>
       <use style="stroke:#000000;stroke-width:0.8;" x="591.48" xlink:href="#m651fd02136" y="630"/>
      </g>
     </g>
     <g id="text_17">
      <!-- 0.40 -->
      <g transform="translate(598.48 638.358281)scale(0.22 -0.22)">
       <use xlink:href="#DejaVuSans-48"/>
       <use x="63.623047" xlink:href="#DejaVuSans-46"/>
       <use x="95.410156" xlink:href="#DejaVuSans-52"/>
       <use x="159.033203" xlink:href="#DejaVuSans-48"/>
      </g>
     </g>
    </g>
    <g id="ytick_6">
     <g id="line2d_10">
      <g>
       <use style="stroke:#000000;stroke-width:0.8;" x="591.48" xlink:href="#m651fd02136" y="562.05"/>
      </g>
     </g>
     <g id="text_18">
      <!-- 0.48 -->
      <g transform="translate(598.48 570.408281)scale(0.22 -0.22)">
       <use xlink:href="#DejaVuSans-48"/>
       <use x="63.623047" xlink:href="#DejaVuSans-46"/>
       <use x="95.410156" xlink:href="#DejaVuSans-52"/>
       <use x="159.033203" xlink:href="#DejaVuSans-56"/>
      </g>
     </g>
    </g>
    <g id="ytick_7">
     <g id="line2d_11">
      <g>
       <use style="stroke:#000000;stroke-width:0.8;" x="591.48" xlink:href="#m651fd02136" y="494.1"/>
      </g>
     </g>
     <g id="text_19">
      <!-- 0.56 -->
      <g transform="translate(598.48 502.458281)scale(0.22 -0.22)">
       <defs>
        <path d="M 10.796875 72.90625 
L 49.515625 72.90625 
L 49.515625 64.59375 
L 19.828125 64.59375 
L 19.828125 46.734375 
Q 21.96875 47.46875 24.109375 47.828125 
Q 26.265625 48.1875 28.421875 48.1875 
Q 40.625 48.1875 47.75 41.5 
Q 54.890625 34.8125 54.890625 23.390625 
Q 54.890625 11.625 47.5625 5.09375 
Q 40.234375 -1.421875 26.90625 -1.421875 
Q 22.3125 -1.421875 17.546875 -0.640625 
Q 12.796875 0.140625 7.71875 1.703125 
L 7.71875 11.625 
Q 12.109375 9.234375 16.796875 8.0625 
Q 21.484375 6.890625 26.703125 6.890625 
Q 35.15625 6.890625 40.078125 11.328125 
Q 45.015625 15.765625 45.015625 23.390625 
Q 45.015625 31 40.078125 35.4375 
Q 35.15625 39.890625 26.703125 39.890625 
Q 22.75 39.890625 18.8125 39.015625 
Q 14.890625 38.140625 10.796875 36.28125 
z
" id="DejaVuSans-53"/>
       </defs>
       <use xlink:href="#DejaVuSans-48"/>
       <use x="63.623047" xlink:href="#DejaVuSans-46"/>
       <use x="95.410156" xlink:href="#DejaVuSans-53"/>
       <use x="159.033203" xlink:href="#DejaVuSans-54"/>
      </g>
     </g>
    </g>
    <g id="ytick_8">
     <g id="line2d_12">
      <g>
       <use style="stroke:#000000;stroke-width:0.8;" x="591.48" xlink:href="#m651fd02136" y="426.15"/>
      </g>
     </g>
     <g id="text_20">
      <!-- 0.64 -->
      <g transform="translate(598.48 434.508281)scale(0.22 -0.22)">
       <use xlink:href="#DejaVuSans-48"/>
       <use x="63.623047" xlink:href="#DejaVuSans-46"/>
       <use x="95.410156" xlink:href="#DejaVuSans-54"/>
       <use x="159.033203" xlink:href="#DejaVuSans-52"/>
      </g>
     </g>
    </g>
    <g id="ytick_9">
     <g id="line2d_13">
      <g>
       <use style="stroke:#000000;stroke-width:0.8;" x="591.48" xlink:href="#m651fd02136" y="358.2"/>
      </g>
     </g>
     <g id="text_21">
      <!-- 0.72 -->
      <g transform="translate(598.48 366.558281)scale(0.22 -0.22)">
       <defs>
        <path d="M 8.203125 72.90625 
L 55.078125 72.90625 
L 55.078125 68.703125 
L 28.609375 0 
L 18.3125 0 
L 43.21875 64.59375 
L 8.203125 64.59375 
z
" id="DejaVuSans-55"/>
       </defs>
       <use xlink:href="#DejaVuSans-48"/>
       <use x="63.623047" xlink:href="#DejaVuSans-46"/>
       <use x="95.410156" xlink:href="#DejaVuSans-55"/>
       <use x="159.033203" xlink:href="#DejaVuSans-50"/>
      </g>
     </g>
    </g>
    <g id="ytick_10">
     <g id="line2d_14">
      <g>
       <use style="stroke:#000000;stroke-width:0.8;" x="591.48" xlink:href="#m651fd02136" y="290.25"/>
      </g>
     </g>
     <g id="text_22">
      <!-- 0.80 -->
      <g transform="translate(598.48 298.608281)scale(0.22 -0.22)">
       <use xlink:href="#DejaVuSans-48"/>
       <use x="63.623047" xlink:href="#DejaVuSans-46"/>
       <use x="95.410156" xlink:href="#DejaVuSans-56"/>
       <use x="159.033203" xlink:href="#DejaVuSans-48"/>
      </g>
     </g>
    </g>
    <g id="ytick_11">
     <g id="line2d_15">
      <g>
       <use style="stroke:#000000;stroke-width:0.8;" x="591.48" xlink:href="#m651fd02136" y="222.3"/>
      </g>
     </g>
     <g id="text_23">
      <!-- 0.88 -->
      <g transform="translate(598.48 230.658281)scale(0.22 -0.22)">
       <use xlink:href="#DejaVuSans-48"/>
       <use x="63.623047" xlink:href="#DejaVuSans-46"/>
       <use x="95.410156" xlink:href="#DejaVuSans-56"/>
       <use x="159.033203" xlink:href="#DejaVuSans-56"/>
      </g>
     </g>
    </g>
    <g id="ytick_12">
     <g id="line2d_16">
      <g>
       <use style="stroke:#000000;stroke-width:0.8;" x="591.48" xlink:href="#m651fd02136" y="154.35"/>
      </g>
     </g>
     <g id="text_24">
      <!-- 0.96 -->
      <g transform="translate(598.48 162.708281)scale(0.22 -0.22)">
       <defs>
        <path d="M 10.984375 1.515625 
L 10.984375 10.5 
Q 14.703125 8.734375 18.5 7.8125 
Q 22.3125 6.890625 25.984375 6.890625 
Q 35.75 6.890625 40.890625 13.453125 
Q 46.046875 20.015625 46.78125 33.40625 
Q 43.953125 29.203125 39.59375 26.953125 
Q 35.25 24.703125 29.984375 24.703125 
Q 19.046875 24.703125 12.671875 31.3125 
Q 6.296875 37.9375 6.296875 49.421875 
Q 6.296875 60.640625 12.9375 67.421875 
Q 19.578125 74.21875 30.609375 74.21875 
Q 43.265625 74.21875 49.921875 64.515625 
Q 56.59375 54.828125 56.59375 36.375 
Q 56.59375 19.140625 48.40625 8.859375 
Q 40.234375 -1.421875 26.421875 -1.421875 
Q 22.703125 -1.421875 18.890625 -0.6875 
Q 15.09375 0.046875 10.984375 1.515625 
z
M 30.609375 32.421875 
Q 37.25 32.421875 41.125 36.953125 
Q 45.015625 41.5 45.015625 49.421875 
Q 45.015625 57.28125 41.125 61.84375 
Q 37.25 66.40625 30.609375 66.40625 
Q 23.96875 66.40625 20.09375 61.84375 
Q 16.21875 57.28125 16.21875 49.421875 
Q 16.21875 41.5 20.09375 36.953125 
Q 23.96875 32.421875 30.609375 32.421875 
z
" id="DejaVuSans-57"/>
       </defs>
       <use xlink:href="#DejaVuSans-48"/>
       <use x="63.623047" xlink:href="#DejaVuSans-46"/>
       <use x="95.410156" xlink:href="#DejaVuSans-57"/>
       <use x="159.033203" xlink:href="#DejaVuSans-54"/>
      </g>
     </g>
    </g>
    <g id="ytick_13">
     <g id="line2d_17">
      <g>
       <use style="stroke:#000000;stroke-width:0.8;" x="591.48" xlink:href="#m651fd02136" y="86.4"/>
      </g>
     </g>
     <g id="text_25">
      <!-- 1.04 -->
      <g transform="translate(598.48 94.758281)scale(0.22 -0.22)">
       <use xlink:href="#DejaVuSans-49"/>
       <use x="63.623047" xlink:href="#DejaVuSans-46"/>
       <use x="95.410156" xlink:href="#DejaVuSans-48"/>
       <use x="159.033203" xlink:href="#DejaVuSans-52"/>
      </g>
     </g>
    </g>
    <g id="text_26">
     <!-- AUC Score -->
     <g transform="translate(676.539219 444.53625)rotate(-90)scale(0.33 -0.33)">
      <defs>
       <path d="M 8.6875 72.90625 
L 18.609375 72.90625 
L 18.609375 28.609375 
Q 18.609375 16.890625 22.84375 11.734375 
Q 27.09375 6.59375 36.625 6.59375 
Q 46.09375 6.59375 50.34375 11.734375 
Q 54.59375 16.890625 54.59375 28.609375 
L 54.59375 72.90625 
L 64.5 72.90625 
L 64.5 27.390625 
Q 64.5 13.140625 57.4375 5.859375 
Q 50.390625 -1.421875 36.625 -1.421875 
Q 22.796875 -1.421875 15.734375 5.859375 
Q 8.6875 13.140625 8.6875 27.390625 
z
" id="DejaVuSans-85"/>
       <path d="M 64.40625 67.28125 
L 64.40625 56.890625 
Q 59.421875 61.53125 53.78125 63.8125 
Q 48.140625 66.109375 41.796875 66.109375 
Q 29.296875 66.109375 22.65625 58.46875 
Q 16.015625 50.828125 16.015625 36.375 
Q 16.015625 21.96875 22.65625 14.328125 
Q 29.296875 6.6875 41.796875 6.6875 
Q 48.140625 6.6875 53.78125 8.984375 
Q 59.421875 11.28125 64.40625 15.921875 
L 64.40625 5.609375 
Q 59.234375 2.09375 53.4375 0.328125 
Q 47.65625 -1.421875 41.21875 -1.421875 
Q 24.65625 -1.421875 15.125 8.703125 
Q 5.609375 18.84375 5.609375 36.375 
Q 5.609375 53.953125 15.125 64.078125 
Q 24.65625 74.21875 41.21875 74.21875 
Q 47.75 74.21875 53.53125 72.484375 
Q 59.328125 70.75 64.40625 67.28125 
z
" id="DejaVuSans-67"/>
       <path d="M 30.609375 48.390625 
Q 23.390625 48.390625 19.1875 42.75 
Q 14.984375 37.109375 14.984375 27.296875 
Q 14.984375 17.484375 19.15625 11.84375 
Q 23.34375 6.203125 30.609375 6.203125 
Q 37.796875 6.203125 41.984375 11.859375 
Q 46.1875 17.53125 46.1875 27.296875 
Q 46.1875 37.015625 41.984375 42.703125 
Q 37.796875 48.390625 30.609375 48.390625 
z
M 30.609375 56 
Q 42.328125 56 49.015625 48.375 
Q 55.71875 40.765625 55.71875 27.296875 
Q 55.71875 13.875 49.015625 6.21875 
Q 42.328125 -1.421875 30.609375 -1.421875 
Q 18.84375 -1.421875 12.171875 6.21875 
Q 5.515625 13.875 5.515625 27.296875 
Q 5.515625 40.765625 12.171875 48.375 
Q 18.84375 56 30.609375 56 
z
" id="DejaVuSans-111"/>
       <path d="M 41.109375 46.296875 
Q 39.59375 47.171875 37.8125 47.578125 
Q 36.03125 48 33.890625 48 
Q 26.265625 48 22.1875 43.046875 
Q 18.109375 38.09375 18.109375 28.8125 
L 18.109375 0 
L 9.078125 0 
L 9.078125 54.6875 
L 18.109375 54.6875 
L 18.109375 46.1875 
Q 20.953125 51.171875 25.484375 53.578125 
Q 30.03125 56 36.53125 56 
Q 37.453125 56 38.578125 55.875 
Q 39.703125 55.765625 41.0625 55.515625 
z
" id="DejaVuSans-114"/>
      </defs>
      <use xlink:href="#DejaVuSans-65"/>
      <use x="68.408203" xlink:href="#DejaVuSans-85"/>
      <use x="141.601562" xlink:href="#DejaVuSans-67"/>
      <use x="211.425781" xlink:href="#DejaVuSans-32"/>
      <use x="243.212891" xlink:href="#DejaVuSans-83"/>
      <use x="306.689453" xlink:href="#DejaVuSans-99"/>
      <use x="361.669922" xlink:href="#DejaVuSans-111"/>
      <use x="422.851562" xlink:href="#DejaVuSans-114"/>
      <use x="461.714844" xlink:href="#DejaVuSans-101"/>
     </g>
    </g>
   </g>
   <g id="patch_8">
    <path d="M 564.3 630 
L 564.3 562.05 
L 564.3 154.35 
L 564.3 86.4 
L 591.48 86.4 
L 591.48 154.35 
L 591.48 562.05 
L 591.48 630 
z
" style="fill:none;stroke:#000000;stroke-linejoin:miter;stroke-width:0.8;"/>
   </g>
  </g>
 </g>
 <defs>
  <clipPath id="p03993c3fb9">
   <rect height="543.6" width="446.4" x="90" y="86.4"/>
  </clipPath>
  <clipPath id="p8dc38ae6b8">
   <rect height="543.6" width="27.18" x="564.3" y="86.4"/>
  </clipPath>
 </defs>
</svg>
